<svg width="152" height="50" viewBox="0 0 152 50" fill="none" xmlns="http://www.w3.org/2000/svg">
<path d="M65.0012 26.3125C65.0012 33.506 59.3736 38.8068 52.4674 38.8068C45.5611 38.8068 39.9336 33.506 39.9336 26.3125C39.9336 19.0682 45.5611 13.8181 52.4674 13.8181C59.3736 13.8181 65.0012 19.0682 65.0012 26.3125ZM59.5145 26.3125C59.5145 21.8172 56.2529 18.7415 52.4674 18.7415C48.6819 18.7415 45.4203 21.8172 45.4203 26.3125C45.4203 30.7627 48.6819 33.8835 52.4674 33.8835C56.2529 33.8835 59.5145 30.757 59.5145 26.3125Z" fill="white"/>
<path d="M92.0402 26.3125C92.0402 33.506 86.4127 38.8068 79.5065 38.8068C72.6002 38.8068 66.9727 33.506 66.9727 26.3125C66.9727 19.0739 72.6002 13.8181 79.5065 13.8181C86.4127 13.8181 92.0402 19.0682 92.0402 26.3125ZM86.5535 26.3125C86.5535 21.8172 83.2919 18.7415 79.5065 18.7415C75.721 18.7415 72.4594 21.8172 72.4594 26.3125C72.4594 30.7627 75.721 33.8835 79.5065 33.8835C83.2919 33.8835 86.5535 30.757 86.5535 26.3125Z" fill="white"/>
<path d="M117.952 14.573V37.0042C117.952 46.2314 112.511 49.9999 106.078 49.9999C100.022 49.9999 96.3772 45.9497 95.0027 42.6374L99.7796 40.6489C100.63 42.6825 102.715 45.0822 106.072 45.0822C110.19 45.0822 112.742 42.5416 112.742 37.7591V35.9621H112.55C111.322 37.4774 108.956 38.8012 105.97 38.8012C99.7233 38.8012 94 33.3596 94 26.3575C94 19.3048 99.7233 13.8181 105.97 13.8181C108.95 13.8181 111.316 15.1419 112.55 16.6122H112.742V14.5786H117.952V14.573ZM113.13 26.3575C113.13 21.958 110.195 18.7415 106.461 18.7415C102.675 18.7415 99.5036 21.958 99.5036 26.3575C99.5036 30.712 102.675 33.8835 106.461 33.8835C110.195 33.8835 113.13 30.712 113.13 26.3575Z" fill="white"/>
<path d="M126.543 1.42529V38.0409H121.191V1.42529H126.543Z" fill="white"/>
<path d="M147.398 30.4247L151.656 33.2638C150.282 35.2974 146.97 38.8012 141.246 38.8012C134.148 38.8012 128.848 33.3145 128.848 26.3069C128.848 18.8767 134.194 13.8125 140.632 13.8125C147.116 13.8125 150.287 18.9725 151.324 21.7609L151.893 23.1805L135.191 30.098C136.469 32.6047 138.458 33.8835 141.246 33.8835C144.04 33.8835 145.978 32.509 147.398 30.4247ZM134.289 25.9294L145.454 21.2933C144.84 19.733 142.993 18.6458 140.818 18.6458C138.03 18.6458 134.148 21.1075 134.289 25.9294Z" fill="white"/>
<path d="M19.6766 23.0622V17.7614H37.5394C37.714 18.6852 37.8042 19.778 37.8042 20.961C37.8042 24.938 36.717 29.8558 33.2131 33.3596C29.8051 36.9085 25.4506 38.8012 19.6823 38.8012C8.99053 38.8012 0 30.0924 0 19.4006C0 8.70887 8.99053 0 19.6823 0C25.5971 0 29.8107 2.32086 32.9766 5.34587L29.2361 9.0863C26.966 6.95696 23.8903 5.30081 19.6766 5.30081C11.8691 5.30081 5.76273 11.5931 5.76273 19.4006C5.76273 27.2082 11.8691 33.5004 19.6766 33.5004C24.7409 33.5004 27.625 31.4669 29.4727 29.6192C30.9711 28.1208 31.9569 25.9802 32.3456 23.0565L19.6766 23.0622Z" fill="white"/>
</svg>
