<svg width="152" height="50" viewBox="0 0 152 50" fill="none" xmlns="http://www.w3.org/2000/svg">
<path d="M64.7698 29.5044H73.4101V34.5027H58.75V14.9783H64.7698V29.5044Z" fill="white"/>
<path d="M83.3635 14.9783H77.3438V34.5027H83.3635V14.9783Z" fill="white"/>
<path d="M99.6823 25.427H99.7409V14.9783H105.426V34.5027H99.5735L93.5872 23.8446H93.5286V34.5027H87.8438V14.9783H93.9975L99.6823 25.427Z" fill="white"/>
<path d="M127.652 26.9592C127.652 32.4012 124.78 34.9715 118.76 34.9715C112.741 34.9715 109.844 32.4012 109.844 26.9592V14.9783H115.863V25.6196C115.863 27.5871 115.863 30.1072 118.794 30.1072C121.724 30.1072 121.64 27.5955 121.64 25.6196V14.9783H127.66V26.9592H127.652Z" fill="white"/>
<path d="M137.866 14.9783L140.813 20.2864L143.718 14.9783H150.391L144.128 24.1712L151.094 34.5027H143.852L140.511 28.6839L137.07 34.5027H130.18L137.229 24.1126L130.808 14.9783H137.866Z" fill="white"/>
<path d="M0.0859375 20.01V49.9999H30.0842V40.0033H10.0993V20.01H0.0859375Z" fill="white"/>
<path d="M10.082 10.0385H40.0803V40.0033H35.0903V49.9999H50.0769V0H0.09375V14.995H10.082V10.0385Z" fill="white"/>
</svg>
