<svg width="200" height="200" viewBox="0 0 200 200" fill="none" xmlns="http://www.w3.org/2000/svg">
<path d="M147.6 166.96C145.608 167.042 143.724 167.221 141.845 167.188C136.287 167.089 130.937 165.919 125.799 163.767C121.197 161.84 116.955 159.313 113.282 155.887C111.671 154.384 110.14 152.788 108.649 151.163C108.423 150.916 108.42 150.032 108.636 149.863C111.126 147.915 112.965 145.402 114.757 142.845C115.586 141.662 115.756 141.608 116.904 142.37C119.596 144.159 122.561 145.222 125.749 145.564C128.126 145.818 130.527 146.109 132.906 146.035C139.671 145.823 145.512 143.408 150.025 138.128C150.052 138.097 150.084 138.071 150.109 138.04C151.714 136.028 151.658 136.123 153.846 137.449C156.777 139.225 159.94 140.452 163.357 140.914C164.491 141.068 165.62 141.359 166.754 141.373C168.143 141.389 169.547 141.259 170.921 141.044C172.078 140.862 172.082 140.875 171.946 142.119C171.538 145.877 170.315 149.349 168.528 152.64C166.138 157.039 162.827 160.53 158.586 163.153C155.225 165.233 151.549 166.314 147.6 166.96Z" fill="#262626"/>
<path d="M119.994 166.357C123.358 167.629 126.656 168.823 129.923 170.095C130.287 170.237 130.727 170.829 130.715 171.198C130.631 173.748 130.454 176.295 130.273 178.84C130.14 180.702 130.043 182.572 129.767 184.414C129.444 186.577 129.086 188.755 128.48 190.849C127.895 192.868 125.919 193.264 124.214 193.549C122.22 193.882 120.279 193.494 118.545 192.183C117.047 191.051 116.719 189.357 116.063 187.809C114.246 183.52 112.634 179.131 110.6 174.95C108.701 171.047 106.366 167.342 103.339 164.192C100.694 161.44 97.8977 158.837 95.17 156.167C95.0579 156.057 94.9629 155.93 94.7148 155.642C95.0862 155.489 95.3682 155.272 95.6513 155.27C98.5007 155.254 101.213 154.672 103.802 153.453C104.018 153.352 104.543 153.558 104.719 153.783C107.501 157.351 110.788 160.378 114.476 162.95C116.222 164.167 118.1 165.191 119.994 166.357Z" fill="#262626"/>
<path d="M183.702 10.1362L148.575 53.3774C148.595 53.3975 148.615 53.4169 148.635 53.437L123.271 84.6626C123.255 84.6383 123.238 84.6145 123.222 84.5903L120.577 87.8452C120.598 87.8638 120.618 87.8832 120.64 87.9009L74.5781 144.606C74.5136 144.643 74.4477 144.677 74.3828 144.712L32.585 196.169L24.8232 189.865L60.7324 145.658C59.2581 145.261 57.8167 144.703 56.4131 143.958C51.7744 141.497 48.8187 137.821 47.998 132.528C47.3978 128.656 47.5896 124.94 49.9717 121.635C52.052 118.749 54.9569 116.968 58.208 115.708C59.726 115.119 60.2241 114.187 59.7852 112.679C58.6593 108.811 58.2361 104.92 59.5244 100.996C60.9185 96.7495 64.0147 94.1399 67.918 92.3608C70.0488 91.3896 72.3209 91.0245 74.668 91.1118C77.5226 91.2181 80.1898 92.0434 82.7803 93.1753C83.6104 93.538 84.4292 93.9274 85.251 94.3091C86.5616 94.9178 88.2375 94.0198 88.1914 92.562C87.9861 86.0754 92.7354 82.5219 98.0312 81.063C101.13 80.2093 104.351 80.0121 107.511 80.354C109.365 80.5546 111.125 80.9609 112.763 81.605L115.509 78.2251C111.187 76.1542 106.481 75.7681 101.686 76.1772C97.7787 76.5106 93.9786 77.5487 90.6689 79.8237C87.8666 81.7501 85.8085 84.2814 84.7822 87.5835C84.3223 89.0631 84.0386 89.2307 82.5693 88.6431C79.5673 87.4425 76.4626 86.844 73.2363 86.9448C69.119 87.0736 65.4406 88.5076 62.1123 90.8774C58.9852 93.1041 56.7303 96.0352 55.5293 99.687C54.2978 103.432 54.303 107.268 55.0654 111.115C55.213 111.86 55.0692 112.364 54.3027 112.776C51.4637 114.3 48.8735 116.148 46.9287 118.799C46.7652 119.022 46.0388 119.116 45.792 118.948C42.177 116.484 39.5922 113.372 38.8916 108.818C38.2514 104.655 39.4511 101.159 42.1592 98.1675C43.225 96.9903 44.675 96.0787 46.0996 95.3335C47.6611 94.5167 48.307 92.8461 46.7725 91.4331C44.6461 89.4748 44.1851 86.1412 45.4453 83.2378C46.908 79.8681 49.2698 77.3736 52.958 76.7729C54.9847 76.4429 57.1371 76.8003 59.2236 76.9634C60.157 77.0363 61.2147 76.5942 61.4893 75.6431C62.1434 73.3764 63.0269 71.2776 64.7217 69.5298C66.344 67.8568 68.3449 67.0259 70.5225 66.8423C72.9893 66.6344 75.5202 66.5581 77.9062 67.5288C78.519 67.7781 79.1088 68.0982 79.6787 68.437C80.7675 69.0842 82.2107 68.8226 82.8867 67.8198C83.3988 67.0602 83.033 65.6375 82.1006 64.9663C80.4678 63.7911 78.6178 63.1104 76.6396 62.8784C75.0792 62.6954 73.4981 62.6647 71.9248 62.6177C65.7956 62.4344 60.6438 66.0409 58.4854 71.644C58.0081 72.8827 56.9972 72.4801 56.2227 72.4048C53.889 72.1779 51.6678 72.5532 49.5332 73.4282C44.5641 75.4654 41.8683 79.4677 40.7363 84.48C40.2027 86.8431 40.5611 89.3699 41.7705 91.6216C42.1257 92.2829 42.2373 92.6336 41.4297 93.2368C38.4289 95.4779 36.2657 98.3939 35.2334 102.059C33.8559 106.95 34.4724 111.565 37.085 115.939C38.7306 118.694 40.9964 120.802 43.6201 122.566C44.23 122.976 44.4366 123.355 44.1826 124.158C43.8385 125.245 43.8675 126.448 43.5576 127.551C43.3852 128.165 42.9765 128.919 42.4561 129.193C39.732 130.626 36.8403 130.935 33.7715 130.48C30.7975 130.039 28.2003 128.859 25.7285 127.247C21.1199 124.24 19.4748 119.047 21.165 113.964C21.2641 113.666 21.4079 113.381 21.4854 113.079C21.8727 111.563 21.3098 110.593 19.7725 110.04C14.1963 108.032 11.1855 104.006 10.2148 98.1978C9.57415 94.3634 10.3525 90.9718 12.7842 88.02C14.3833 86.0792 16.5843 84.8595 18.917 84.0298C20.5783 83.4388 21.307 82.2584 20.6074 80.2925C19.0398 75.8871 19.4395 71.5624 22.249 67.6812C25.511 63.175 30.1148 60.5206 35.2002 58.6206C36.9655 57.9611 38.7931 57.6513 40.7119 58.1538C41.5968 58.3854 42.4165 58.08 42.8877 57.0981C44.8962 52.9122 48.105 49.8367 52.1221 47.6655C54.5823 46.3359 57.2777 45.4896 60.084 45.1782C62.1601 44.9478 64.2544 44.6585 66.332 44.7144C69.8313 44.8085 73.3014 45.238 76.4971 46.8882C77.6213 47.4686 78.6999 47.2933 79.3623 46.2661C80.973 43.7682 83.2458 42.0375 85.7715 40.6558C88.1331 39.3638 90.6969 38.5544 93.4023 38.2798C93.7942 38.24 94.1787 38.1264 94.6816 38.0435C98.8209 37.9399 102.81 38.0626 106.654 39.5015C111.05 41.1466 114.591 43.7317 116.764 48.0425C117.68 49.8604 118.792 50.3858 120.644 48.9839C122.934 47.2493 125.661 46.5505 128.526 46.3892C132.508 46.165 136.291 46.8395 139.91 48.1851L175.94 3.83057L183.702 10.1362ZM153.742 63.0103C154.2 63.3812 154.865 63.4182 155.949 63.4263C158.315 63.4439 160.716 63.8323 163.03 64.3677C166.731 65.2238 170.014 67.1282 173.007 69.3862C176.222 71.8125 177.83 75.3678 178.669 79.229C179.141 81.403 179.269 83.6519 179.725 85.8306C179.863 86.494 180.466 87.3923 181.048 87.5786C186.423 89.2952 188.965 93.1675 189.739 98.5278C190.348 102.743 189.879 106.853 188.475 110.828C187.683 113.069 186.619 115.208 184.525 116.634C183.541 117.305 183.136 118.153 183.524 119.536C184.404 122.668 184.744 125.845 183.63 129.073C182.651 131.91 180.817 133.942 178.274 135.316C175.465 136.834 172.459 137.657 169.212 137.849C163.792 138.17 159.038 136.464 154.615 133.569C154.288 133.354 154.173 132.476 154.283 131.979C155.018 128.665 155.828 125.367 156.644 122.072C156.826 121.333 157.18 120.821 158.073 120.572C163.889 118.954 167.528 115.063 169.081 109.306C169.575 107.474 169.507 105.48 169.607 103.555C169.674 102.284 168.668 101.21 167.557 101.193C166.466 101.176 165.42 102.271 165.468 103.521C165.558 105.873 165.321 108.162 164.32 110.315C162.576 114.066 159.591 116.284 155.561 116.884C151.766 117.449 147.944 117.439 144.183 116.444C143.445 116.249 142.127 117.117 141.935 117.858C141.635 119.014 142.271 120.384 143.28 120.59C144.716 120.884 146.161 121.164 147.615 121.322C149.094 121.483 150.59 121.489 152.433 121.581C152.1 123.267 151.837 124.853 151.47 126.416C150.82 129.18 150.086 131.908 148.55 134.365C146.053 138.357 142.487 140.895 137.978 141.928C135.578 142.478 133.049 142.698 130.584 142.665C127.25 142.619 123.905 142.127 120.881 140.613C119.548 139.945 118.313 138.901 117.317 137.776C115.76 136.017 114.265 136.113 113.141 138.238C111.508 141.322 109.621 144.252 107.003 146.589C104.339 148.968 101.371 150.739 97.6602 151.105C92.776 151.587 88.0404 151.282 83.5098 149.47L153.742 63.0103Z" fill="#262626"/>
</svg>
