<svg width="100" height="40" viewBox="0 0 100 40" fill="none" xmlns="http://www.w3.org/2000/svg">
<path d="M25.6842 22.712C25.6838 15.6264 25.6831 8.57535 25.6843 1.5243C25.6844 1.19978 25.682 0.902511 25.41 0.640589C25.2943 0.529212 25.3289 0.261812 25.2852 0.0068383C25.4689 0.0068383 25.5908 0.00685093 25.7127 0.0068383C29.0485 0.00658972 32.3843 -0.0115273 35.7199 0.0122481C38.0092 0.0285662 40.2156 0.443341 42.24 1.58519C44.2712 2.7309 45.7186 4.40351 46.6575 6.52195C47.414 8.22889 47.7792 10.0227 47.8558 11.89C47.9231 13.5294 47.8527 15.154 47.4947 16.7537C46.8592 19.5926 45.5573 22.0458 43.1994 23.84C42.0359 24.7254 40.7162 25.2964 39.299 25.6612C38.0643 25.979 36.8082 26.0806 35.5439 26.0859C32.2542 26.0998 28.9645 26.0912 25.6747 26.0906C25.5736 26.0905 25.4724 26.0793 25.3541 26.0723C25.3091 25.7742 25.2501 25.51 25.5384 25.2879C25.6328 25.2153 25.6711 25.0241 25.6739 24.8858C25.6883 24.1729 25.6828 23.4596 25.6842 22.712ZM31.1411 17.5002C31.1411 18.6798 31.1411 19.8594 31.1411 21.0472C32.8876 21.0472 34.579 21.084 36.2676 21.032C37.1382 21.0052 37.9871 20.761 38.7745 20.3548C40.5367 19.4457 41.5276 17.9376 42.0352 16.0822C42.5273 14.2838 42.6074 12.4566 42.2606 10.6194C42.0141 9.31381 41.5258 8.1123 40.6438 7.10006C39.4067 5.68034 37.7987 5.03473 35.9546 4.97863C34.4373 4.93247 32.9177 4.96528 31.3991 4.96484C31.3227 4.96481 31.2463 4.98137 31.1411 4.99354C31.1411 9.1528 31.1411 13.292 31.1411 17.5002Z" fill="white"/>
<path d="M54.2613 0.00730604C57.6551 0.00746191 61.0144 0.00896608 64.3737 0.00708274C65.6334 0.0063749 66.8735 0.146976 68.0699 0.554019C70.3182 1.31898 71.9397 2.77732 72.911 4.95611C73.7748 6.89366 73.9281 8.91332 73.6711 10.9911C73.4441 12.827 72.7916 14.4784 71.5429 15.8577C70.2971 17.2339 68.7135 18.0083 66.9078 18.3787C65.7956 18.6069 64.6756 18.6404 63.5478 18.6325C62.0523 18.6221 60.5566 18.6351 59.0611 18.6249C58.8094 18.6232 58.7219 18.6899 58.7232 18.9528C58.7328 20.9085 58.7215 22.8643 58.7385 24.8199C58.7402 25.0125 58.8976 25.2004 58.9648 25.3966C59.0343 25.6001 59.0819 25.8112 59.152 26.0654C57.0004 26.0654 54.9368 26.0654 52.8541 26.0654C52.8006 25.7853 52.7645 25.5343 53.0171 25.3093C53.1126 25.2242 53.1538 25.0488 53.1685 24.9091C53.1937 24.67 53.1802 24.4266 53.1802 24.1851C53.1807 16.6497 53.181 9.11429 53.1807 1.5789C53.1807 1.23728 53.2092 0.906063 52.9034 0.627364C52.7893 0.52338 52.8299 0.249725 52.793 0.00730604C53.3133 0.00730604 53.7701 0.00730604 54.2613 0.00730604ZM58.7274 13.3985C58.717 13.6072 58.8587 13.6 59.0041 13.5996C60.9024 13.5943 62.8009 13.6096 64.6987 13.5802C65.9906 13.5603 67.0244 12.9793 67.6506 11.8543C68.5929 10.1615 68.5521 8.41836 67.5347 6.77893C66.8814 5.72617 65.8623 5.17496 64.5795 5.18181C62.7618 5.19153 60.9441 5.18389 59.1263 5.18367C59.0045 5.18366 58.8828 5.18367 58.721 5.18367C58.721 7.93793 58.721 10.6394 58.7274 13.3985Z" fill="white"/>
<path d="M14.4988 18.2953C13.6063 18.4091 12.7443 18.592 11.8781 18.6149C10.039 18.6637 8.19766 18.6291 6.35725 18.6288C6.23276 18.6287 6.10828 18.6288 5.95071 18.6288C5.94192 18.769 5.92907 18.8791 5.92898 18.9893C5.92745 20.8757 5.9291 22.7621 5.92559 24.6486C5.92502 24.9549 5.9577 25.2221 6.20725 25.4604C6.31471 25.5631 6.29617 25.8164 6.2917 26.0003C6.29089 26.0336 6.08049 26.0881 5.96674 26.0884C4.08032 26.0934 2.19389 26.0916 0.307456 26.0899C0.218375 26.0898 0.129306 26.0759 0.0302397 26.0676C-0.016199 25.7851 -0.0164539 25.5625 0.204256 25.3324C0.341429 25.1894 0.399621 24.9179 0.399884 24.704C0.409263 17.0662 0.407601 9.42846 0.407455 1.79069C0.407451 1.59516 0.429822 1.39608 0.399899 1.20521C0.376149 1.0537 0.327035 0.867679 0.220962 0.775387C-0.0176841 0.567766 -0.0295128 0.330521 0.0304546 0.00751984C0.14467 0.00751984 0.266511 0.00752827 0.388352 0.00752406C4.21874 0.00727548 8.04919 -0.00721395 11.8795 0.0126769C13.844 0.0228814 15.705 0.458727 17.3574 1.58216C18.6793 2.48091 19.6243 3.69481 20.2113 5.16938C21.2602 7.8039 21.2998 10.4861 20.3562 13.1459C19.5005 15.5581 17.8245 17.2005 15.3786 18.0226C15.0965 18.1174 14.8112 18.2024 14.4988 18.2953ZM6.66534 13.5994C8.32103 13.5986 9.97673 13.599 11.6324 13.5965C12.8345 13.5948 13.8651 13.209 14.6125 12.2253C15.7895 10.6764 15.8043 8.38317 14.7559 6.78382C14.0758 5.74651 13.0801 5.17847 11.8003 5.18237C10.0412 5.18774 8.28197 5.18373 6.5228 5.18373C6.33253 5.18373 6.14225 5.18373 5.95419 5.18373C5.95419 8.0175 5.95419 10.7932 5.95419 13.5996C6.18697 13.5996 6.39208 13.5996 6.66534 13.5994Z" fill="white"/>
<path d="M81.1749 23.8214C80.8957 24.6 80.6237 25.3531 80.3403 26.1375C78.3102 26.1375 76.2357 26.1375 74.0938 26.1375C74.2982 25.6305 74.4813 25.1668 74.6717 24.7061C75.622 22.4067 76.5748 20.1084 77.5257 17.8093C78.4546 15.5632 79.3803 13.3159 80.3112 11.0706C81.2729 8.75088 82.2403 6.43352 83.2027 4.11404C83.7297 2.84385 84.254 1.57252 84.773 0.299011C84.8586 0.0889248 84.9832 0.00834612 85.2156 0.00988398C86.6651 0.0194986 88.1147 0.0208216 89.5642 0.00784897C89.8041 0.00570441 89.9235 0.0980761 90 0.301353C90.7961 2.41595 91.5926 4.53038 92.39 6.6445C93.3005 9.05881 94.2148 11.4717 95.1224 13.8872C96.2107 16.7834 97.2916 19.6823 98.3801 22.5784C98.69 23.4029 99.0141 24.2222 99.3356 25.0423C99.3724 25.1361 99.4127 25.2577 99.4888 25.3019C99.8063 25.4864 99.7745 25.7616 99.7314 26.0692C99.6458 26.0794 99.5686 26.0957 99.4913 26.0967C97.6167 26.1191 95.742 26.1348 93.8675 26.1672C93.6384 26.1712 93.566 26.072 93.5146 25.8869C93.0364 24.1641 92.5589 22.4411 92.0737 20.7203C91.6697 19.2872 91.2515 17.858 90.8503 16.4241C90.7935 16.2213 90.6846 16.2093 90.5184 16.2403C88.0885 16.6943 85.9464 17.7101 84.1635 19.4514C82.9397 20.6466 81.9967 22.0294 81.2968 23.5846C81.264 23.6575 81.2205 23.7256 81.1749 23.8214ZM86.629 8.65164C86.4174 9.87008 86.2157 11.0904 85.9846 12.3051C85.9453 12.5116 85.8104 12.7216 85.6666 12.8825C85.1701 13.4382 84.6473 13.9703 84.1416 14.5179C84.0506 14.6164 83.9929 14.7457 83.8979 14.8954C85.959 14.3444 87.9083 13.6274 89.9988 13.3899C89.1397 10.3827 88.2827 7.38252 87.4257 4.38236C87.4046 4.3878 87.3835 4.39325 87.3625 4.39869C87.1189 5.79631 86.8754 7.19392 86.629 8.65164Z" fill="white"/>
<path d="M97.7371 39.1313C96.8917 39.7726 95.9363 39.9574 94.9296 39.9616C94.0005 39.9653 93.0714 39.9624 92.1133 39.9624C92.1133 37.2497 92.1133 34.5693 92.1133 31.8467C92.3754 31.8467 92.6254 31.8411 92.8751 31.8477C93.9415 31.8757 95.0185 31.8231 96.0713 31.9582C97.5034 32.1419 98.4621 33.025 98.9307 34.3815C99.3835 35.6923 99.3061 36.9865 98.5633 38.1856C98.3497 38.5305 98.0295 38.8094 97.7371 39.1313ZM93.4188 38.6557C94.0846 38.6577 94.7516 38.6839 95.4157 38.6513C95.7402 38.6354 96.0771 38.5524 96.3773 38.426C97.1641 38.0946 97.5935 37.4588 97.7989 36.6447C98.0983 35.4586 97.6865 33.9005 96.393 33.3549C95.4165 32.9429 94.3778 33.0361 93.3003 33.1752C93.2882 33.2185 93.2656 33.2619 93.2655 33.3053C93.2633 35.0078 93.2619 36.7103 93.2668 38.4128C93.267 38.4902 93.3263 38.5674 93.4188 38.6557Z" fill="white"/>
<path d="M19.3342 38.5885C19.3343 38.0365 19.3292 37.5188 19.3366 37.0014C19.3408 36.7129 19.2159 36.58 18.9251 36.5811C17.7404 36.5852 16.5558 36.5871 15.3712 36.5811C15.1395 36.5799 15.0759 36.6824 15.0775 36.8953C15.0844 37.7578 15.081 38.6205 15.0813 39.4831C15.0814 39.6297 15.0813 39.7764 15.0813 39.9437C14.633 39.9437 14.2247 39.9437 13.7891 39.9437C13.7891 37.2516 13.7891 34.5777 13.7891 31.8474C14.164 31.8474 14.5388 31.8327 14.9103 31.8614C14.9743 31.8663 15.0717 32.0546 15.0732 32.1593C15.0862 33.0792 15.0928 33.9996 15.0747 34.9194C15.0684 35.2427 15.1558 35.3618 15.4974 35.356C16.6357 35.3368 17.7747 35.3383 18.9131 35.3553C19.2505 35.3603 19.3479 35.2426 19.3402 34.9159C19.3181 33.9852 19.3202 33.0538 19.3281 32.1228C19.3289 32.03 19.4292 31.8626 19.4924 31.8581C19.8555 31.8325 20.2213 31.8457 20.6059 31.8457C20.6059 34.5615 20.6059 37.2354 20.6059 39.937C20.1887 39.937 19.7832 39.937 19.3342 39.937C19.3342 39.4903 19.3342 39.0566 19.3342 38.5885Z" fill="white"/>
<path d="M28.9611 35.79C29.5251 34.5426 30.0837 33.3216 30.624 32.0926C30.7101 31.8967 30.8192 31.8313 31.0142 31.8431C31.1632 31.8522 31.3132 31.8468 31.4627 31.847C32.2059 31.8477 32.1886 31.8553 32.4917 32.5403C33.4288 34.6579 34.3805 36.7691 35.3258 38.8831C35.474 39.2145 35.6186 39.5474 35.7988 39.9567C35.3215 39.9567 34.9146 39.9694 34.5097 39.9459C34.4293 39.9412 34.3314 39.8102 34.2853 39.7161C34.109 39.3564 33.9295 38.9957 33.7925 38.6204C33.6934 38.3489 33.5341 38.2498 33.2575 38.252C32.2108 38.2604 31.1641 38.2573 30.1173 38.2589C30.0829 38.2589 30.046 38.2724 30.0144 38.264C29.3234 38.0788 29.1033 38.5278 28.9037 39.0539C28.5574 39.9671 28.5452 39.9625 27.5657 39.962C27.4344 39.9619 27.3032 39.962 27.0977 39.962C27.738 38.5276 28.3438 37.1706 28.9611 35.79ZM32.3108 35.1696C32.0336 34.5483 31.7564 33.927 31.449 33.238C30.8714 34.5394 30.3276 35.7648 29.7736 37.0131C30.9135 37.0131 31.9933 37.0131 33.135 37.0131C32.8498 36.38 32.5883 35.7997 32.3108 35.1696Z" fill="white"/>
<path d="M69.4535 39.7698C69.2498 39.3291 69.0756 38.9032 68.8622 38.4979C68.8029 38.3851 68.6287 38.2652 68.5058 38.2637C67.276 38.2487 66.0458 38.2687 64.8161 38.253C64.4716 38.2486 64.3079 38.3831 64.1974 38.6946C64.0674 39.0611 63.8932 39.413 63.7198 39.7621C63.677 39.8482 63.5656 39.9519 63.4809 39.9564C63.0925 39.9771 62.7025 39.9655 62.2422 39.9655C62.3939 39.6172 62.5205 39.3195 62.6526 39.0242C63.5658 36.9841 64.4799 34.9444 65.3948 32.905C65.4368 32.8113 65.4913 32.7232 65.5377 32.6314C65.6652 32.3786 65.7421 31.9626 65.9286 31.9059C66.3188 31.7872 66.7679 31.838 67.1898 31.8655C67.2869 31.8719 67.4016 32.0517 67.4575 32.1747C68.0358 33.4473 68.6029 34.725 69.1745 36.0005C69.7323 37.2451 70.2922 38.4887 70.8495 39.7335C70.8715 39.7826 70.8767 39.8392 70.9058 39.9574C70.4574 39.9574 70.04 39.9633 69.6232 39.9501C69.5699 39.9485 69.5197 39.8475 69.4535 39.7698ZM67.985 37.0485C68.0695 37.0347 68.154 37.021 68.2698 37.0021C67.7062 35.7415 67.16 34.5197 66.5871 33.238C66.0137 34.5305 65.4693 35.7577 64.8966 37.0487C65.973 37.0487 66.9489 37.0487 67.985 37.0485Z" fill="white"/>
<path d="M78.7435 34.7943C78.7473 36.2705 78.7511 37.7468 78.7327 39.2752C78.6648 39.8326 78.6648 39.8327 78.1612 39.8328C78.0347 39.8329 77.9077 39.8248 77.7819 39.8342C77.5897 39.8487 77.5192 39.7717 77.5195 39.5764C77.5239 37.1392 77.5217 34.7019 77.5256 32.2646C77.5257 32.1798 77.5477 32.0713 77.602 32.0149C77.737 31.8749 78.4071 31.9699 78.5343 32.1327C78.9909 32.7168 79.4442 33.3036 79.9039 33.8852C80.4562 34.5841 81.0178 35.2755 81.5677 35.9762C81.912 36.415 82.2331 36.8723 82.5844 37.3052C82.679 37.4219 82.846 37.4799 83.0503 37.6097C83.0781 37.3568 83.1094 37.2023 83.1098 37.0478C83.1134 35.5877 83.1115 34.1276 83.1116 32.6676C83.1116 31.954 83.1124 31.9699 83.8169 31.9537C84.1454 31.9462 84.2284 32.0678 84.2239 32.3765C84.2087 33.4225 84.2181 34.4688 84.2181 35.515C84.2182 36.8256 84.2128 38.1363 84.2228 39.4468C84.2249 39.7202 84.1481 39.8181 83.8565 39.8445C83.4485 39.8814 83.2229 39.6779 82.9994 39.3964C82.267 38.4739 81.5214 37.5619 80.7878 36.6404C80.2121 35.9173 79.6509 35.1827 79.0704 34.4637C79.0061 34.3842 78.8566 34.3736 78.7466 34.331C78.7146 34.4852 78.4853 34.6382 78.7435 34.7943Z" fill="white"/>
<path d="M56.8927 39.81C56.7958 39.8822 56.7012 39.9568 56.6063 39.9571C54.9514 39.964 53.2965 39.9588 51.6416 39.9647C51.4075 39.9656 51.3305 39.9011 51.3321 39.6488C51.3466 37.3161 51.3451 34.9833 51.3483 32.6505C51.3484 32.5473 51.3496 32.4441 51.3501 32.3409C51.3525 31.8483 51.3524 31.8483 51.8665 31.8469C52.6474 31.8448 52.6487 31.8448 52.6489 32.6163C52.6494 34.5011 52.6486 36.3858 52.6482 38.2706C52.6481 38.7282 52.6478 38.7293 53.0898 38.7294C54.2391 38.7297 55.3883 38.7287 56.5376 38.7293C56.639 38.7294 56.7404 38.738 56.8949 38.7451C56.8949 39.0987 56.8949 39.4382 56.8927 39.81Z" fill="white"/>
<path d="M43.5835 35.7588C43.5835 37.1801 43.5835 38.5669 43.5835 39.9641C43.2077 39.9641 42.8755 39.9506 42.5451 39.9687C42.3069 39.9817 42.2563 39.8821 42.2578 39.6662C42.2661 38.5284 42.262 37.3905 42.2622 36.2527C42.2625 34.885 42.2687 33.5172 42.2579 32.1496C42.256 31.9037 42.3295 31.8272 42.5718 31.8424C42.8905 31.8625 43.2115 31.8474 43.5836 31.8474C43.5836 33.1596 43.5836 34.4419 43.5835 35.7588Z" fill="white"/>
<path d="M78.7557 34.7677C78.4884 34.6381 78.7177 34.4852 78.7497 34.331C78.8597 34.3736 79.0092 34.3842 79.0735 34.4637C79.654 35.1827 80.2152 35.9173 80.7909 36.6404C81.5245 37.5619 82.2701 38.4739 83.0025 39.3964C83.226 39.6779 83.4516 39.8814 83.8596 39.8444C84.1512 39.818 84.228 39.7202 84.2259 39.4468C84.2159 38.1363 84.2213 36.8256 84.2212 35.515C84.2212 34.4688 84.2118 33.4225 84.227 32.3765C84.2315 32.0677 84.1485 31.9462 83.82 31.9537C83.1155 31.9699 83.1147 31.954 83.1147 32.6675C83.1146 34.1276 83.1165 35.5877 83.1129 37.0477C83.1125 37.2023 83.0812 37.3568 83.0534 37.6096C82.8491 37.4799 82.6821 37.4218 82.5875 37.3052C82.2362 36.8722 81.9151 36.415 81.5708 35.9762C81.0209 35.2755 80.4593 34.584 79.907 33.8852C79.4473 33.3036 78.994 32.7168 78.5374 32.1327C78.4102 31.9699 77.7401 31.8749 77.6051 32.0149C77.5508 32.0713 77.5288 32.1798 77.5287 32.2646C77.5248 34.7019 77.527 37.1392 77.5226 39.5764C77.5223 39.7716 77.5928 39.8486 77.785 39.8342C77.9108 39.8248 78.0378 39.8328 78.1643 39.8328C78.6679 39.8326 78.6679 39.8326 78.7297 39.3075C78.7557 39.5105 78.7658 39.7333 78.7758 39.956C78.301 39.956 77.8806 39.956 77.4375 39.956C77.4375 37.2514 77.4375 34.576 77.4375 31.9019C78.1726 31.6898 78.4778 31.8284 78.926 32.4204C79.674 33.4085 80.4579 34.3695 81.2324 35.3374C81.6696 35.8838 82.1148 36.424 82.5648 36.9601C82.6516 37.0635 82.7771 37.1343 82.9696 37.2878C82.9696 35.4097 82.9696 33.6488 82.9696 31.8551C83.434 31.8551 83.8534 31.8551 84.3082 31.8551C84.3142 31.9674 84.3267 32.0902 84.3267 32.2131C84.3279 34.6635 84.3204 37.114 84.3358 39.5644C84.338 39.9191 84.2375 40.0132 83.8896 39.9986C83.5005 39.9822 83.2244 39.8962 82.9621 39.5551C82.0529 38.3729 81.0897 37.2322 80.1518 36.0718C79.7844 35.6174 79.4296 35.1527 79.0689 34.6929C78.9391 34.5275 78.8226 34.4503 78.7557 34.7677Z" fill="white"/>
<path d="M7.19412 32.925C7.09511 32.9947 6.99996 33.0734 6.90458 33.0737C6.26175 33.0756 5.61889 33.0578 4.97598 33.0526C4.51305 33.0489 4.51056 33.0536 4.51045 33.5086C4.50997 35.5313 4.50626 37.554 4.51612 39.5766C4.51756 39.8732 4.47139 40.0429 4.12095 39.9751C3.97819 39.9475 3.82383 39.9833 3.67471 39.9844C3.15723 39.9883 3.15646 39.9874 3.15786 39.4515C3.16292 37.5095 3.16914 35.5675 3.17353 33.6255C3.17467 33.1219 3.13238 33.0652 2.63088 33.057C2.05694 33.0475 1.48236 33.0604 0.908389 33.0758C0.540554 33.0856 0.459826 33.018 0.474214 32.6458C0.479506 32.509 0.53569 32.3632 0.504052 32.2379C0.413113 31.8775 0.58805 31.8353 0.885704 31.8367C2.72447 31.8456 4.56329 31.8416 6.4021 31.8418C6.50553 31.8418 6.61227 31.8571 6.71181 31.8371C7.18 31.743 7.19446 31.8495 7.19809 32.2773C7.19984 32.4841 7.19805 32.691 7.19412 32.925ZM1.08755 31.9621C0.794841 31.9244 0.648706 32.035 0.690215 32.3463C0.700748 32.4254 0.697125 32.5076 0.689488 32.5874C0.665382 32.8393 0.771683 32.9367 1.02769 32.9321C1.67123 32.9203 2.31529 32.9368 2.95879 32.9239C3.22852 32.9185 3.32461 33.0167 3.31974 33.2863C3.30666 34.0103 3.31415 34.7347 3.31422 35.4589C3.31433 36.7924 3.30968 38.1259 3.32415 39.4592C3.3255 39.5833 3.43315 39.797 3.51953 39.8125C3.78141 39.8594 4.05709 39.8295 4.3506 39.8295C4.37553 39.3849 4.41305 38.9976 4.416 38.61C4.42448 37.495 4.42618 36.3798 4.41609 35.2648C4.4107 34.6696 4.36467 34.0747 4.35973 33.4795C4.35807 33.2787 4.42647 33.0773 4.45331 32.9289C5.22279 32.9289 5.8991 32.9301 6.57539 32.9284C7.0045 32.9274 7.02289 32.8774 7.04894 32.372C7.06723 32.0173 6.91557 31.9535 6.60234 31.9555C4.78612 31.9672 2.96979 31.9616 1.08755 31.9621Z" fill="white"/>
<path d="M93.3238 33.1614C93.3515 34.9592 93.3539 36.7708 93.3563 38.6135C93.3245 38.5673 93.2652 38.4901 93.265 38.4127C93.2601 36.7102 93.2615 35.0077 93.2637 33.3052C93.2638 33.2618 93.2864 33.2185 93.3238 33.1614Z" fill="white"/>
<path d="M1.1208 31.9619C2.97006 31.9615 4.7864 31.9671 6.60262 31.9554C6.91585 31.9534 7.06751 32.0172 7.04922 32.3719C7.02316 32.8772 7.00478 32.9272 6.57567 32.9283C5.89937 32.93 5.22307 32.9287 4.45358 32.9287C4.42675 33.0771 4.35835 33.2785 4.36001 33.4793C4.36495 34.0746 4.41098 34.6695 4.41637 35.2647C4.42646 36.3797 4.42475 37.4949 4.41628 38.6099C4.41333 38.9974 4.37581 39.3848 4.35088 39.8293C4.05736 39.8293 3.78168 39.8593 3.5198 39.8123C3.43343 39.7968 3.32577 39.5832 3.32443 39.4591C3.30996 38.1258 3.31461 36.7922 3.31449 35.4588C3.31443 34.7345 3.30694 34.0102 3.32002 33.2862C3.32489 33.0166 3.2288 32.9183 2.95906 32.9237C2.31557 32.9366 1.6715 32.9202 1.02797 32.9319C0.771959 32.9366 0.665658 32.8391 0.689765 32.5873C0.697401 32.5075 0.701025 32.4252 0.690491 32.3462C0.648982 32.0349 0.795117 31.9243 1.1208 31.9619Z" fill="white"/>
</svg>
