<svg width="200" height="200" viewBox="0 0 200 200" fill="none" xmlns="http://www.w3.org/2000/svg">
<path d="M64.6553 22.6934C71.0658 19.3356 77.899 17.903 85.1523 18.3643C97.1384 19.1265 106.724 24.3761 114.167 33.7188C115.143 34.9441 116.058 36.2275 116.784 37.626C117.062 38.1602 117.374 38.3596 118.021 38.251C120.984 37.754 123.984 37.6794 126.92 38.2705C131.026 39.0974 134.793 40.7859 138.03 43.5146C142.018 46.8757 144.843 51.0194 146.2 56.0928C146.474 57.1157 147.126 57.07 147.894 57.0625C156.728 56.9768 164.287 60.1129 170.567 66.2861C174.529 70.1802 177.212 74.8527 178.73 80.2402C179.927 84.4832 180.367 88.7916 179.661 93.0889C177.707 104.982 171.222 113.464 160.106 118.244C156.004 120.008 151.663 120.631 147.235 120.656C141.899 120.687 136.561 120.655 131.225 120.612C130.482 120.606 130.234 120.845 130.236 121.567C130.263 129.951 130.234 138.335 130.309 146.719C130.334 149.602 133.001 152.869 135.864 153.864C137.104 154.295 138.356 154.542 139.689 154.524C143.682 154.472 147.677 154.449 151.668 154.532C152.827 154.556 153.311 154.131 153.639 153.104C154.777 149.535 157.177 147.134 160.588 145.66C166.292 143.196 172.907 145.965 175.738 150.971C179.823 158.192 175.566 167.115 167.849 168.911C162.018 170.268 155.644 166.885 153.709 161.127C153.307 159.932 152.791 159.45 151.438 159.463C147.001 159.506 142.56 159.619 138.121 159.389C132.941 159.12 127.974 155.457 126.18 150.567C125.512 148.748 125.267 146.881 125.268 144.961C125.27 137.363 125.266 129.763 125.261 122.165C125.26 120.662 125.24 120.645 123.775 120.645C117.767 120.641 111.758 120.641 105.749 120.638C105.301 120.637 104.853 120.644 104.406 120.619C102.489 120.513 102.488 120.509 102.488 122.386C102.49 133.503 102.512 144.62 102.469 155.736C102.464 157.008 102.769 157.632 104.072 158.048C107.031 158.991 109.23 160.973 110.756 163.796C114.528 171.173 110.307 179.803 102.584 181.432C96.3515 182.746 90.7286 179.456 88.5605 173.739C86.1033 167.26 89.7459 159.753 96.4824 157.832C97.2 157.627 97.4902 157.23 97.4893 156.46C97.4748 144.894 97.4782 133.328 97.5 121.762C97.5015 120.933 97.2004 120.635 96.3896 120.637C89.5226 120.651 82.6551 120.656 75.7881 120.629C74.7041 120.625 74.7213 121.275 74.7217 122.031C74.7252 129.704 74.7437 137.378 74.7109 145.051C74.6852 151.067 72.0341 155.497 66.6221 158.203C64.4925 159.268 62.1987 159.48 59.877 159.494C55.9585 159.517 52.0392 159.527 48.1211 159.482C47.1944 159.472 46.7307 159.761 46.4219 160.664C44.4693 166.372 39.5335 169.753 33.5977 169.172C29.0848 168.73 25.1373 166.03 23.4131 161.173C21.0626 154.551 24.328 147.757 30.9326 145.39C37.1581 143.159 44.0418 146.719 46.2549 152.714C47.0111 154.763 46.4496 154.49 48.8037 154.498C52.6104 154.512 56.4178 154.506 60.2246 154.501C64.883 154.495 67.9699 152.264 69.4775 147.852C69.6262 147.416 69.7025 146.986 69.7031 146.535C69.7152 138.263 69.7164 129.991 69.751 121.72C69.7551 120.74 69.2418 120.644 68.4756 120.646C62.9896 120.662 57.4985 120.809 52.0186 120.627C38.9525 120.192 29.1276 114.338 23.1719 102.521C20.5696 97.3582 19.5434 91.8032 20.1865 85.998C21.6071 73.1762 28.3499 64.3259 40.0801 59.2061C40.7272 58.9236 41.39 58.5881 42.0742 58.498C43.3299 58.3327 43.4835 57.5686 43.4775 56.5244C43.4514 51.9488 44.4542 47.5684 46.1338 43.3398C49.7731 34.1777 55.9411 27.2578 64.6553 22.6934ZM105.418 164.758C103.616 162.559 101.158 162.195 98.5273 162.487C95.2489 162.852 92.105 167.125 92.7617 170.278C93.4237 173.456 95.0884 175.731 98.543 176.62C101.785 177.113 104.777 175.727 106.239 173.085C107.882 170.117 107.399 167.175 105.418 164.758ZM41.7334 155.179C40.6804 150.58 35.2142 148.325 31.1484 150.801C27.5847 152.971 26.1993 158.216 29.7061 162.064C32.3609 164.462 35.5803 164.894 38.459 163.237C41.212 161.653 42.4935 158.499 41.7334 155.179ZM165.319 149.839C162.286 149.801 160.049 151.149 158.73 153.823C157.437 156.446 157.687 159.048 159.482 161.408C162.616 165.529 168.58 165.071 171.507 160.362C172.098 159.252 172.49 158.007 172.396 156.812C172.091 152.974 169.4 149.89 165.319 149.839ZM87.2324 66.0537C84.7083 65.8359 82.1663 66.173 79.7861 67.041C77.5548 67.8549 75.515 69.1171 73.793 70.748L73.4531 71.0791L73.4521 71.0801C71.7524 72.7828 70.4249 74.8208 69.5537 77.0635C68.6827 79.306 68.2861 81.705 68.3906 84.1084C68.4953 86.512 69.0974 88.8689 70.1602 91.0273C71.223 93.1859 72.724 95.1008 74.5654 96.6494C76.4068 98.1978 78.5507 99.3465 80.8594 100.023C83.168 100.7 85.5926 100.89 87.9785 100.581C90.3643 100.272 92.6598 99.4702 94.7197 98.2275C96.6512 97.0622 98.3365 95.5328 99.6816 93.7256L99.9453 93.3604C100.531 92.5312 101.308 92.1172 101.996 92.1172H125.646L126.03 92.1084C127.939 92.0153 129.751 91.2123 131.108 89.8555L136.236 84.7275C136.99 83.9737 136.99 82.7517 136.236 81.998L129.412 75.1738C128.658 74.4201 127.436 74.4203 126.683 75.1738L123.952 77.9033L121.223 75.1738C120.469 74.4202 119.247 74.4202 118.493 75.1738L115.764 77.9033L113.033 75.1738C112.671 74.8122 112.181 74.6086 111.67 74.6084H101.995C101.307 74.6083 100.531 74.1931 99.9453 73.3633L99.9443 73.3643C98.4869 71.2933 96.5946 69.5653 94.3994 68.3027C92.2032 67.0396 89.7566 66.2717 87.2324 66.0537ZM81.1084 70.667C82.9597 69.9918 84.9371 69.73 86.9004 69.8994C88.8637 70.0689 90.7663 70.667 92.4746 71.6494C94.1826 72.6318 95.6553 73.9754 96.7891 75.5869L96.791 75.5908C97.901 77.1626 99.7437 78.4688 101.996 78.4688H110.869L114.398 81.998C115.152 82.7517 116.374 82.7514 117.128 81.998L119.857 79.2686L122.588 81.998C123.342 82.7517 124.564 82.7515 125.317 81.998L128.047 79.2686L132.142 83.3633L128.379 87.126C127.654 87.8512 126.671 88.259 125.651 88.2578L125.648 88.2568H101.995C99.7426 88.2569 97.9009 89.5638 96.791 91.1357L96.79 91.1367L96.3721 91.6992C95.3631 92.9838 94.1275 94.076 92.7256 94.9219C91.1235 95.8884 89.338 96.5125 87.4824 96.7529C85.6268 96.9933 83.7409 96.8457 81.9453 96.3193C80.1495 95.7928 78.482 94.8978 77.0498 93.6934C75.6179 92.4891 74.4516 91.0008 73.625 89.3223C72.7983 87.6434 72.3295 85.81 72.248 83.9404C72.1667 82.0711 72.4739 80.2051 73.1514 78.4609C73.7442 76.9347 74.6096 75.5307 75.7021 74.3164L76.1846 73.8076C77.5775 72.4146 79.2577 71.342 81.1084 70.667ZM81.6416 76.5391C80.8878 75.7853 79.6659 75.7853 78.9121 76.5391C77.1027 78.3488 76.0861 80.8031 76.0859 83.3623C76.086 85.9219 77.1022 88.3776 78.9121 90.1875C79.6657 90.9411 80.8878 90.9407 81.6416 90.1875C82.3954 89.4337 82.3954 88.2118 81.6416 87.458C80.5558 86.3722 79.9464 84.8988 79.9463 83.3633C79.9463 81.8278 80.556 80.3545 81.6416 79.2686C82.3954 78.5148 82.3954 77.2929 81.6416 76.5391Z" fill="#262626"/>
</svg>
