<svg width="200" height="200" viewBox="0 0 200 200" fill="none" xmlns="http://www.w3.org/2000/svg">
<path d="M80.6514 5.5127L80.7793 5.61523L80.8594 5.73145L80.8877 5.85938L80.9326 5.98047L81.0518 6.08398L81.1953 6.2666L81.3301 6.31348L81.4756 6.31152L81.6543 6.34863L81.8184 6.4502L81.8994 6.56055L81.9609 6.68652L82.0586 6.83203L82.6025 7.18066L82.5771 7.6377L82.6475 7.89746L82.8174 8.10254L83.041 8.2207L83.2627 8.21973L83.4512 8.02832L83.4434 7.51367L83.5586 7.4082L83.5977 7.38379L83.873 7.28027L83.9414 7.26953L83.9658 7.24512L84.1094 6.76953L84.3535 6.4541L84.7236 6.20312L85.1738 6.09863L85.6436 6.22754L85.8926 6.50488L86.6025 8.07422L86.9219 8.49805L86.9814 8.60156L87.0459 8.78418L87.0918 8.85938L87.1875 8.9248L87.3965 9.0166L87.4375 9.08789L87.5303 9.2002L87.7344 9.32617L87.9385 9.39941L88.0303 9.35059L88.0957 9.17578L88.1523 9.15918L88.1797 9.29004L88.2031 9.96973L88.1133 10.4971L87.8057 11.4355L87.4844 12.2764L87.4258 12.7334L87.376 12.9473L87.2559 13.1504L87.1484 13.2236L86.9082 13.3242L86.8115 13.3887L86.7236 13.5068L86.5889 13.873L86.4297 14.0859L86.1299 14.4863L86.0752 14.7256L86.1338 14.9062L86.2109 15.0059L86.3398 15.1738L86.4238 15.3281L86.4639 15.5342L86.4941 15.9639L86.5684 16.1904L86.6699 16.3555L86.9238 16.6719L87.0234 16.8438L87.0654 17.0625V17.2764L87.1035 17.4697L87.2559 17.6289L87.4736 17.7676L87.8311 17.9229L88.1865 18.0293L88.4023 18.0146L88.5029 17.8477L88.6416 17.6162L88.9033 17.4189L89.2285 17.4023L90.2402 17.793L90.4199 17.8955L90.5303 18.0225L90.6221 18.1543L90.7148 18.1875L90.834 18.0166L91.4033 17.4766L91.9062 16.8721L92.0576 16.6084L92.1055 16.5479L92.2236 16.4717L92.2881 16.4639L92.3613 16.4785L93.4609 16.4648L93.8115 16.5029L94.082 16.6045L94.627 16.9434L94.9697 17.0723L95.3271 17.1016L95.6748 17.0586L95.9746 16.9746L96.1172 16.8955L96.2285 16.8154L96.3604 16.7803L96.5723 16.8369L96.7363 16.9297L96.8359 17.0332L96.8955 17.1641L96.9434 17.3369L96.9688 17.6572L96.9043 18.0303L96.7363 18.3213L96.4521 18.3984L96.1738 18.5771L95.9863 19.0449L95.9189 19.5811L95.9951 19.9717L96.0762 20.0322L96.2861 20.0762L96.3584 20.1289L96.4014 20.2383L96.3975 20.3135L96.377 20.3789L96.3799 20.46L96.6328 21.5576L96.5938 22.3271L96.623 22.6367L96.7051 22.8389L96.8506 23.001L97.3926 23.4834L97.7246 23.8613L97.8301 24.249L97.3027 24.7617L97.2168 24.9502L97.0967 25.3779L96.9727 25.5742L96.6699 25.9248L96.5703 26.1602L96.5508 26.4121L96.6162 27.1953L96.5586 27.4199L96.375 27.8408L96.333 28.0537L96.4004 28.291L96.6924 28.585L96.7588 28.792L96.6914 28.9902L96.5322 29.2051L96.1875 29.5352L96.0781 29.5908L95.8604 29.6719L95.7754 29.7578L95.7412 29.8857L95.7539 30.1768L95.707 30.3203L95.542 30.4834L94.7451 30.9258L94.6943 30.9863L94.6709 31.1182L94.582 31.3701L94.2207 31.7432L94.1543 32.0049L94.2383 32.2314L94.4121 32.4658L94.6982 32.7383L94.7998 32.835L95.585 33.2002L95.707 33.374L95.6699 33.459L95.459 33.6943L95.3936 33.7891L95.3662 33.9219L95.3721 34.3818L95.4131 34.4717L95.5117 34.7344L95.585 34.8086L95.6748 34.8594L95.7549 34.9248L95.7988 35.0391L95.7705 35.2451L95.5859 35.7354L95.5352 35.9697L95.5771 36.2197L95.7891 36.7061L95.8281 36.8887L95.7334 37.0576L95.335 37.3076L95.1719 37.4375L94.9551 37.7881L94.7949 38.1279L94.5986 38.4443L94.2715 38.7305L93.8809 38.9492L93.7881 39.085L93.7422 39.3486L93.7812 39.792L93.7129 39.959L93.459 40.0684L93.3691 40.1396L93.3457 40.2197L93.377 40.3057L93.459 40.3975L93.4707 40.4248L93.4746 40.4521L93.4707 40.4805L93.459 40.5078L93.3418 40.5713L93.2637 40.6553L93.2363 40.7627L93.2656 40.8945L93.29 41.1572L93.2305 41.3916L93.2041 41.4922L92.9453 42.0811L92.5303 42.5693L92.3594 42.8438L92.3633 43.1309L92.5605 43.2842L93.0049 43.3682L93.5488 43.4707L93.7881 43.5928L94.0137 43.7432L94.2178 43.9248L94.3896 44.1445L94.5986 44.1904L94.9697 44.4102L95.3242 44.5576L95.377 44.5938L95.4199 44.5869L95.5381 44.5156L95.6045 44.4473L95.8164 44.1445L95.8467 43.9512L95.9736 43.876L96.1396 43.8457L96.2871 43.7881L96.3652 43.6826L96.6152 43.1992L96.8438 42.8916L98.2119 41.7627L98.3682 41.709L98.4629 41.7148L98.541 41.6855L98.7617 41.4023L98.7803 41.3662L98.792 41.2871L98.7266 41.2666L98.5977 41.2578L98.5176 41.2197L98.5928 41.1084L98.7646 41.0508L98.9531 41.0684L99.1387 41.0527L99.3027 40.8945L99.3594 40.8486L99.4053 40.8262L99.4375 40.8369L99.4531 40.8945L99.4746 40.9756L99.5889 41.2246L99.6152 41.1963L99.6621 41.0918L99.7217 40.9951L99.7715 40.8936L100.017 40.6387L100.436 40.46L100.681 40.291L100.405 40.0645L100.548 40.0107L100.777 39.9238L100.857 39.8125L100.914 39.6709L100.945 39.5V39.3027L101.229 39.4814L101.362 39.3359L101.47 39.0869L101.673 38.9541L102.825 38.7285L102.868 38.4697L103.171 37.6133L103.28 37.0596L103.382 36.8223L103.587 36.626H103.664L103.781 36.7725L104.267 36.9062L104.745 37.1836L105 37.1016L106.876 35.0781L107.071 34.8672L107.161 34.7979L107.521 34.8164L108.093 34.8467L108.321 34.9746L108.401 35.1611L108.447 35.3799L108.565 35.6035L108.94 35.8701L108.987 35.9141L109.08 35.9668L109.371 36.3594L109.994 36.915L110.364 37.1025L110.734 37.0801L110.968 37.376L111.304 37.6611L111.717 37.875L112.17 37.9609L113.23 37.9648L113.629 38.1689L113.787 38.6885L113.579 39.5371L113.575 39.6582L113.751 39.708L114.388 40.0215L114.662 40.0576V39.9629L114.544 39.7754L114.473 39.5371L114.539 39.3379L114.71 39.2324L115.15 39.124L115.339 39.0117L115.794 38.5908L116.512 38.1953L116.588 38.0566L116.771 37.9492L117.836 37.4688L118.039 37.4268L118.263 37.4834L118.646 37.7334L118.853 37.79L119.069 37.7061L119.211 37.5195L119.321 37.334L119.444 37.249L119.505 37.1221L119.402 36.3594L119.422 36.1221L119.483 35.9482L119.59 35.8281L119.687 35.7773L119.741 35.749L119.749 35.7441L119.723 35.8008L119.716 35.8105L119.704 35.8281L119.964 35.7363L120.17 35.6055L120.318 35.4121L120.399 35.1348L120.471 34.6973L120.551 34.4951L120.686 34.3291L120.792 34.2627L120.896 34.2246L121.266 34.165L121.536 34.0645L121.993 33.9854L122.152 33.9297L122.265 33.833L122.278 33.7139L122.203 33.6064L121.685 33.248L121.579 33.2041L121.553 33.1318L121.52 33.083L121.498 33.0312L121.502 32.9463L121.628 32.6289L121.835 32.3662L122.105 32.165L122.407 32.0332L123.396 31.8271L123.522 31.8281L124.202 32.0381L124.431 32.0811L124.491 32.0791L124.669 32.0488L124.776 32.0586L125.092 32.1377L125.409 32.167L126.134 32.3633L126.31 32.4893L126.416 32.5869L126.524 32.6562L127.23 32.9785L127.398 33.0244L128.119 33.0645L128.336 33.1006L128.544 33.1738L128.741 33.2773L128.925 33.4033L129.051 33.5547L129.135 33.7217L129.244 33.8496L129.445 33.8926L129.536 33.877L129.594 33.8438L129.639 33.7891L129.69 33.71L129.893 33.4736L130.132 33.3135L130.404 33.2432L130.704 33.2734L131.01 33.4336L131.24 33.6855L131.858 34.7783L132.387 36.0928L132.528 36.3447L132.693 36.5479L133.469 37.2529L133.533 37.3428L133.627 37.4736L134.176 38.6934L134.29 39.0889L134.364 39.2266L134.463 39.3486L134.51 39.3906L134.579 39.4521L135.387 39.9385L135.574 40.1826L135.854 40.748L136.035 40.9717L136.085 41.0527L136.119 41.1348L136.196 41.3926L136.251 41.4941L136.62 41.9346L136.982 42.2656L138.908 43.2793L139.141 43.3623L139.73 43.7363L139.878 43.8926L140.123 44.2617L140.314 44.6348L140.402 44.7412L140.5 44.8135L140.711 44.9316L140.802 45.0137L140.848 45.085L141.143 45.7432L141.178 45.8955L141.187 46.0527L141.143 46.6865L141.166 47.4629L141.118 48.0625L141.062 48.3525L140.26 50.2559L140.198 50.5439L140.272 51.3086L140.313 51.7324L140.355 51.875L140.478 52.1436L140.521 52.2852L140.529 52.4404L140.507 52.5889L140.423 52.8838L140.416 52.9229L140.396 53.0391L140.401 53.1865L140.669 54.2559L140.678 54.3975L140.66 54.5381L140.488 55.0205L140.355 55.5625L140.298 56.1172L140.312 56.4092L140.373 56.6729L140.506 56.9004L140.724 57.084L141.42 57.4639L141.627 57.6406L141.794 57.8428L141.924 58.0566L142.027 58.2881L142.143 58.6904L142.199 58.8232L142.279 58.9404L142.394 59.042L142.727 59.2314L142.826 59.3145L143.067 59.5742L143.164 59.6475L143.272 59.708L143.513 59.8428L143.613 59.9307L143.748 60.1768L143.79 60.4561L143.779 61.0303L143.825 61.3691L143.948 61.6758L144.142 61.9375L144.405 62.1406L144.748 62.2646L146.365 62.8457L146.491 62.8672L147.002 62.8896L148.446 63.2578L148.564 63.3047L148.659 63.373L148.673 63.4355L148.682 63.4727L148.61 63.5684L148.477 63.6436L148.218 63.748L147.919 64.083L147.896 64.5391L148.044 65.0186L148.534 66.0801L148.671 66.2842L148.827 66.4424L148.98 66.5293L149.159 66.5557L149.668 66.5127L149.941 66.5469L150.477 66.7285L151.027 67.0879L151.375 67.5957L151.5 68.2061L151.374 68.8652L151.068 69.6631L151.017 69.9434L150.995 70.4873L150.92 70.7188L150.771 70.8682L150.723 70.917L150.281 71.1963L149.702 71.3818L149.455 71.5449L149.346 71.8291L149.419 72.0635L149.613 72.1904L149.866 72.2363L150.104 72.2305L150.347 72.1846L150.39 72.2383L150.431 72.5137L150.42 72.8604L150.374 72.8809L150.019 73.1123L149.675 73.3926L149.168 73.9268L149.061 74.1055L148.978 74.3652L148.929 74.6406L148.927 74.9287L149.03 75.1416L149.302 75.1953L149.605 75.5098L149.671 75.5254L149.832 75.4961L149.886 75.5098L149.914 75.5732L149.91 75.7158L149.929 75.7686L150.291 76.29L150.447 76.4102H150.451L150.781 76.4766L150.663 76.6455L150.172 76.96L150.051 77.2041L150.255 77.6113L150.16 77.8955L150.093 77.9219L149.898 77.9141L149.847 77.9268L149.823 78.0039L149.837 78.1982L149.925 78.377L149.929 78.4453L149.875 78.4932L149.703 78.5332L149.646 78.5723L149.55 78.8076L149.491 79.0977L149.511 79.3867L149.646 79.6152L149.689 79.7383L149.593 80.3271L149.573 80.7178L149.751 81.5674L149.72 81.9453L149.569 82.29L149.175 82.8164L148.886 83.0811L148.805 83.1758L148.743 83.3008L148.637 83.5938L148.583 83.6846L148.455 83.75L148.127 83.8115L147.983 83.8584L147.884 83.9385L147.65 84.1709L147.579 84.2275L147.419 84.2188L147.201 84.0674L147.078 84.0557L146.991 84.1299L146.842 84.4014L146.754 84.5L146.528 84.5918L145.881 84.7441L145.708 84.7383L145.345 84.9336L145.062 85.5693L144.68 86.2109L144.008 86.4219L143.735 86.29L143.517 86.041L143.122 85.3086L143.102 85.2002L143.16 84.6201L143.157 84.4473L143.097 84.292L142.864 84.2197L142.374 84.1309L142.157 84.0918L142.059 84.041L141.86 83.9092L141.765 83.8682L141.65 83.8633L141.416 83.8975L141.328 83.8936L141.126 83.79L140.962 83.6592L140.793 83.5547L140.587 83.5342L140.416 83.6211L140.045 83.916L139.857 83.9561L139.774 83.8867L139.71 83.6592L139.609 83.6084L139.507 83.6523L139.384 83.8564L139.305 83.9199L139.094 83.9297L138.786 83.7969L138.586 83.8008L138.39 83.915L138.251 84.0967L138.132 84.292L137.994 84.4463L137.747 84.5498L137.545 84.5098L137.35 84.4199L137.124 84.376L136.991 84.4111L136.892 84.4824L136.812 84.5537L136.743 84.5918L136.7 84.5928L136.627 84.5938L136.545 84.5713L136.461 84.5371L135.049 84.3291L134.377 84.0547L134.082 84.0293L133.895 84.1309L133.73 84.2627L133.509 84.3242L133.358 84.2695L133.288 84.1523L133.276 84.0381L133.315 83.9922L133.208 83.9893L133.181 84.0264L133.161 84.0947L132.854 84.4316L132.76 84.4785L132.604 84.4736L132.516 84.4082L132.453 84.332L132.379 84.293L131.926 84.417L131.579 84.5898L131.57 84.5938L131.457 84.6494L131.028 84.7461L130.688 84.4619L130.016 84.4961L129.9 84.6025L129.869 84.7041L129.805 84.7793L129.586 84.8057L129.401 84.7695L129.263 84.6875L129.14 84.5928L129.006 84.5117L128.827 84.4521L128.722 84.4531L128.619 84.4785L128.457 84.4932L128.222 84.4658L127.493 84.2793L127.067 84.251L126.977 84.2168L126.937 84.0996L126.964 83.7969L126.935 83.665L126.858 83.584L126.757 83.5176L126.633 83.4814L126.507 83.4902L126.388 83.5596L126.351 83.6523L126.331 83.7559L126.256 83.8574L125.999 83.9883L125.818 83.9482L125.651 83.8398L125.43 83.7637L125.221 83.7998L124.742 84.0439L124.272 84.3711L124.182 84.4072L124.052 84.3906L123.956 84.3311L123.891 84.2676L123.844 84.2373L123.665 84.2891L123.319 84.542L123.104 84.6387L122.837 84.6719L121.997 84.6699L121.62 84.7861L121.065 84.958L120.316 85.0703L120.065 85.1533L119.656 85.376L118.811 86.1035L118.661 86.2334L118.449 86.3584L117.991 86.4902L117.782 86.5879L117.591 86.7861L117.534 86.9922L117.532 87.0488L117.53 87.2178L117.5 87.4688L117.411 87.6748L117.152 88.0459L117.065 88.2451L117.023 88.5381L117.029 88.7295L116.984 88.8926L116.802 89.1045L116.087 89.667L115.781 89.9717L115.553 90.3799L115.339 91.0762L115.239 91.2988L115.018 91.5762L114.958 91.6836L114.928 91.8135L114.911 92.0762L114.86 92.1963L114.566 92.4502L113.318 93.0625L112.921 93.3711L112.905 93.6396L113.171 93.9023L113.608 94.1904L113.383 94.2529L112.799 94.5928L112.56 94.6787L111.803 94.7422L110.798 94.6562L110.313 94.7109L110.08 95.0117L110.097 95.1475L110.229 95.3633L110.277 95.4785L110.287 95.5801L110.279 95.7305L110.277 95.7656L110.33 96.7285L110.249 97.5029L110.263 98.3984L110.275 98.4307L110.932 100.161L111.178 100.589L111.74 101.253L111.938 101.653L112.062 101.821L112.272 101.949L112.271 101.96L112.268 102.026L112.229 102.093L112.163 102.146L112.072 102.192L112.007 102.237L111.987 102.288L112.011 102.342L112.116 102.442L112.133 102.489L112.116 102.536L111.976 102.688L111.958 102.82L111.996 102.962L112.072 103.104L112.136 103.397L112.188 103.885L112.267 104.147L112.339 104.28L112.4 104.358L112.447 104.444L112.477 104.6L112.463 104.724L112.335 105.126L112.334 105.127L112.18 105.264L112.12 105.462L112.104 105.73L112.137 106.002L112.225 106.204L112.343 106.293L112.416 106.349L113.121 106.585L113.492 106.856L114.439 107.815L114.748 108L114.836 108.084L114.882 108.188L114.902 108.401L114.936 108.5L115.104 108.684L115.504 108.897L115.646 109.062L115.667 109.199L115.685 109.312L115.577 109.491L115.257 109.772L115.125 110.012L115.062 110.253L114.779 112.328L114.875 112.832L115.512 113.817L115.683 114.025L115.758 114.117L115.957 114.557L116.081 115.186L116.65 116.286L117.174 117.025L117.529 117.559L117.67 118.062L117.715 118.784L117.529 119.07L117.436 118.813L117.469 118.159L117.444 117.861L117.278 117.504L116.436 116.385L115.915 115.952L115.835 115.822V115.001L115.71 114.438L115.495 114.078L114.033 112.661L114.012 112.544L114.303 112.571L114.151 112.365L113.693 112.004L113.709 111.871V111.784L113.506 111.899L113.314 111.943L113.165 112.027L113.108 112.26L113.286 113.436L113.439 113.735L113.464 113.825L113.419 113.964H113.315L113.185 113.906L113.065 113.869L113.019 113.813L113.03 113.54L113.023 113.436L112.797 113.149L112.449 112.898L112.07 112.7L110.736 112.231L110.54 112.108L110.364 112.084L110.219 112.303H110.143L109.864 112.181L109.795 112.13L109.747 112.021L109.755 111.925L109.783 111.843L109.796 111.784L109.71 111.529L109.485 111.147L109.458 110.918L109.792 111.002L110.104 110.896L110.365 110.691L110.56 110.485L110.658 110.188L110.562 109.933L110.378 109.82L110.219 109.957L110.319 110.001L110.392 110.061L110.442 110.135L110.475 110.217L110.297 110.433L110.042 110.579L109.812 110.557L109.711 110.261L109.743 109.698L109.819 109.43L109.966 109.17H109.889L109.81 109.269L109.626 109.611H109.543L109.492 109.457L109.462 109.298L109.474 109.144L109.543 109.005L109.4 109.112L109.201 109.184L109.025 109.165L108.949 109.005L108.745 109.063L108.687 109.092L108.806 109.166L108.853 109.268L108.841 109.391L108.779 109.524H108.855L109.119 109.343L109.202 109.481L109.258 109.605L109.268 109.73L109.203 109.87L109.456 110.062L109.585 110.454L109.479 110.706L109.025 110.485L108.263 109.698L107.891 109.494L107.735 109.383L107.756 109.264L107.556 108.998L107.274 108.695L107.085 108.394L107.162 108.131L107.207 108.233L107.259 108.269L107.328 108.278L107.417 108.304L107.253 108.192L107.336 108.087L107.503 107.957L107.586 107.774H107.492L107.427 107.899L107.346 107.951L107.253 107.938L107.162 107.87L107.287 107.757L107.35 107.722L107.417 107.697L106.786 107.711L106.729 107.606L106.992 107.35L106.469 107.378L106.308 107.429V107.523L106.472 107.642L106.584 107.814L106.729 107.949L106.993 107.957L106.933 108.115L106.906 108.283L106.9 108.65L106.472 108.001L106.305 107.815L106.096 107.743L105.863 107.723L105.706 107.775V107.225L105.682 107.09L105.626 106.963L105.571 106.898L105.545 106.957L105.522 107.034L105.411 107.116L105.377 107.186L105.539 107.731L105.545 107.871L105.126 107.549L104.946 107.363L104.859 107.186L105.114 107.264L105.068 107.052L104.983 107.006L104.881 107.023L104.774 107.004L104.674 106.908L104.623 106.813L104.585 106.705L104.521 106.57L104.316 106.286L104.086 106.054L103.814 105.861L103.496 105.694L103.29 105.634L102.524 105.608L102.3 105.682L102.171 105.854L102.078 106.054L101.971 106.215L101.754 106.326L101.502 106.348L100.993 106.31L100.899 106.346L100.881 106.429L100.889 106.516L100.869 106.57L100.812 106.581L100.675 106.566L100.472 106.575L100.1 106.483L99.5537 106.567L99.2783 106.663L99.1592 106.782L99.1045 107.018L98.9717 107.033L98.6582 106.829L97.7969 106.442L96.8701 106.215L94.8711 105.954L94.6094 106.01L94.1807 106.255L93.6406 106.352L93.5098 106.476L93.5049 106.479L93.4648 106.696V107.003L92.8652 106.735V106.655L93.0469 106.516L92.9707 106.307L92.7607 106.184L92.5361 106.31L92.4014 106.232L92.292 106.24L92.1768 106.283L92.0195 106.31L92.0781 106.268L92.1309 106.213L92.168 106.14L92.1875 106.041H91.9355L91.9775 105.967L92.0625 105.771L92.1025 105.694L92 105.69L91.7656 105.608L91.9814 105.045L92.1436 104.805L92.3672 104.914H92.4443L92.5322 104.774L92.6396 104.66L92.7373 104.519L92.79 104.299L92.7715 104.104L92.707 103.925L92.6182 103.762L92.1543 103.089L92.1035 102.919L92.1475 102.799L92.2383 102.726L92.3447 102.659L92.4453 102.557L92.4746 102.462L92.502 102.229L92.5381 102.121L92.6445 102.183L92.7764 102.119L92.8955 101.991L92.96 101.86L92.9541 101.56L92.8301 101.352L92.6846 101.17L92.6143 100.949L92.5615 100.87L92.4453 100.834L92.3301 100.778L92.2734 100.646L92.5381 100.298L92.7393 99.9258L93.0029 99.5557L93.1035 99.3398L93.0957 99.0967L92.96 98.6396L92.9023 98.5166L92.7344 98.2441L92.6973 98.1572L92.7256 98.0234L92.7822 97.9424L92.8408 97.8809L92.9453 97.5938L93.1279 97.5137L93.3545 97.4609L93.5527 97.3271L93.6025 97.1494L93.625 96.8545L93.5996 96.5801L93.4229 96.332L93.5156 96.0557L93.7314 95.668V95.5811L93.584 95.6855L93.46 95.8018L93.3301 95.8965L93.1719 95.9365H92.4053L92.0967 95.8955L91.4756 95.71L90.9453 95.6445L90.6787 95.5332L89.8105 95.415L89.4355 95.2744L88.9463 94.9268L88.7207 94.8379L88.6904 94.7422L88.7148 94.6211L88.7793 94.4785L88.8066 94.3027L88.793 94.1016L88.6572 94.3594L88.6113 94.5645L88.624 95.1035L88.5195 95.2832L88.2725 95.3936L86.709 95.6689L86.1025 95.6406L85.7969 95.6641L85.5566 95.7637L84.9697 95.4688L84.7861 95.3203L84.6611 95.5635L84.5156 95.7139L84.3164 95.8213L83.2393 96.2451L82.7754 96.3408L82.4766 96.4756L82.2334 96.585L82.0312 96.6406L81.8545 96.7715L81.7607 97.0352L81.6416 97.2314L81.3896 97.1631L81.5674 97.2412L81.5459 97.4639L81.4492 97.6621L81.2939 97.8037L81.0918 97.8584L80.9102 97.9541L80.8848 98.1758L80.8867 98.1865L80.9648 98.6016L81.3545 99.1221L82.0732 99.7305L82.1152 99.79L82.2012 99.8604L82.291 99.9541L82.3281 100.082L82.3379 100.195L82.4609 100.674L82.668 101.168L82.6377 101.39L82.5273 101.592L82.1182 102.147L82.0303 102.327L81.9062 102.738L81.7363 103.654L81.6699 103.841L81.2197 104.561L81.0537 105.06L80.9385 105.581L80.8818 106.117L80.8857 106.521L80.8887 106.657L81.1006 107.478L81.1348 107.736L81.0879 108.542L81.1348 108.824L81.5098 109.73L81.5244 109.914L81.4189 110.102L81.1455 111.04L81.1592 111.16L81.2705 111.3L81.3945 111.416L81.4883 111.532L81.5459 111.664L81.585 111.926L81.6172 112.025L81.6211 112.146L81.5664 112.303L81.502 112.371L81.3027 112.528L81.2197 112.649L81.1426 113.104L81.0928 113.216L80.8184 113.669L79.5771 114.987L79.2783 115.541L79.1797 116.124L79.3486 116.569L79.3096 116.643L79.1338 116.659L79.0459 116.714L79.0127 116.809L79.0098 116.95L79.1025 117.43L79.0762 117.504L79.0371 117.598L79.0273 117.714L79.1025 117.861L78.6484 117.914L78.293 118.261L77.2852 119.931L77.2217 120.07L77.1689 120.271L76.9277 120.621L76.874 120.848L76.8555 121.145L76.8057 121.413L76.7275 121.668L76.4072 122.379L76.375 122.496L76.3203 122.632L76.082 122.887L76.0273 123.014L75.9893 123.742L76.0273 124.005L76.2363 124.531V124.768L76.0273 124.97L75.9365 124.72L75.7393 124.727L75.5215 124.872L75.3564 125.048L75.2686 125.184L75.1836 125.354L75.1221 125.554L75.0947 125.785L75.1367 126.057L75.3164 126.513L75.3564 126.736L75.3213 126.989L75.209 127.269L75.1504 127.417L75.0947 127.643L75.1182 127.936L75.3105 128.464L75.3564 128.727L75.3105 128.918L75.207 128.912L75.1152 128.824L75.0938 128.77L74.8604 128.761L74.6855 128.778L74.5674 128.806L74.4619 128.868L74.418 128.985V129.503L74.3613 129.732L73.6152 130.865L73.5703 130.978L73.5986 131.11L73.6367 131.199L73.6074 131.251L73.4424 131.267L73.2246 131.327L73.0215 131.479L72.8477 131.68L72.7148 131.886L72.6367 132.139L72.5381 132.744L72.4131 132.957L72.2783 133.012L72.1221 133.034L71.9971 133.095L71.9443 133.262L71.9727 133.355L72.0518 133.411L72.1631 133.437L72.291 133.435L72.2002 133.603L72.0859 133.739L71.9873 133.886L71.9453 134.08L72.0244 134.244L72.4082 134.501L72.5459 134.646L72.5674 134.808L72.5527 135.039L72.499 135.245L72.4141 135.335H72.2363L72.1416 135.35L71.8662 135.507L71.8232 135.346L71.7324 135.233L71.6045 135.149L71.4424 135.069L71.2529 135.159L71.0898 135.173L70.9531 135.201L70.8418 135.335L70.8379 135.474L70.9258 136.023L71.0566 136.212L71.5205 136.633L71.7471 136.909L71.8896 136.947L72.1201 136.884L71.959 137.135L71.458 137.183L71.3496 137.364L71.2783 137.664L70.9443 138.22L70.8418 138.532L70.8643 138.88L70.9834 139.108L71.1191 139.294L71.1797 139.516L71.1416 139.664L70.9658 139.792L70.9268 139.952L71.0117 140.507V141.499L71.0293 141.535L71.0693 141.572L71.0986 141.627L71.0957 141.717L71.0488 141.79L70.8926 141.912L70.8418 141.982L70.7988 142.107L70.7734 142.228L70.7588 142.46L70.7568 142.497L70.7959 142.759L70.9697 143.266L71.0352 143.756L71.1045 144.044L71.2109 144.319L71.5908 144.892L71.6621 145.087L71.6895 145.377L71.7285 145.584L72.252 146.547L72.9746 147.482L72.877 147.507L72.8154 147.503L72.7568 147.491L72.6699 147.482L72.5684 147.501L72.5586 147.547L72.5742 147.604L72.543 147.661L72.2334 147.831L72.1191 147.918L71.8818 148.176L71.8164 148.384L71.8643 148.905L72.124 149.479L72.7041 149.604L73.3115 149.646L73.6523 149.977L74.0596 149.933L74.4678 149.938L74.8516 149.875L75.1855 149.633L75.2793 149.441L75.3438 149.219L75.4316 149.01L75.6094 148.862L75.7627 148.844L76.3252 148.948L76.5312 148.909L76.6982 148.823L76.8252 148.737L76.918 148.698L77.3037 148.605L77.5117 148.458L77.5156 148.434L77.9863 148.461L78.0654 148.48L78.1377 148.376L78.3018 148.385L78.5381 148.479L78.6602 148.527L78.7256 148.473L78.8594 148.403L78.9307 148.349L79.0801 148.493L79.5527 148.7L79.5645 148.82L79.5459 148.96L79.6279 149.163L79.8535 149.556L79.9551 149.471L79.9609 150.417L80.0225 150.662L80.124 150.826L80.2373 150.967L80.3311 151.118L80.3701 151.313V151.917L80.3975 152.044L80.5176 152.249L80.54 152.392L80.5156 152.4L80.458 152.467L80.4004 152.56L80.3701 152.648V152.952L80.5156 153.916L80.4551 154.112L80.6152 154.5L80.8643 156.941L80.9619 157.343L81.1729 157.672L81.876 158.096L81.9863 158.279L82.0361 158.495L82.3125 159.037L82.5127 159.338L82.5918 159.588L82.6641 159.697L82.7598 159.755L83.0332 159.872L83.0889 159.907L83.1602 160.059L83.3252 160.098L83.5234 160.053L83.6816 159.954L83.5674 159.591L83.542 159.087L83.415 158.649L82.9971 158.484L83.2393 158.379L83.6133 158.651L83.9551 159.047L84.1055 159.309L84.7383 160.957L85.1289 163.442L85.6191 165.692L85.9287 167.108L86.832 171.466L87.582 173.253L88.25 174.304L88.4082 174.558L88.5 174.812L88.4932 174.989L88.1719 174.963L88.0156 174.801L87.5703 174.397L87.3291 174.253L87.2324 174.191L86.8838 174.204L86.6504 174.082L86.8174 173.751L86.6943 173.348L86.6123 172.8L86.4355 172.691L86.459 171.696L86.4092 170.829L86.2051 170.348L85.8252 170.192L85.4111 170.244L85.1309 170.667L85.041 170.88L84.9648 170.947L84.8311 170.876L84.7549 170.787L84.7178 170.706L84.707 170.606V170.457L84.791 170.213L85.2129 169.953L85.3857 169.72L85.4287 169.234L85.3486 168.575L85.1807 167.951L84.9541 167.57L84.7178 167.481L84.4795 167.524L84.2373 167.614L83.9854 167.663L83.8633 167.771L83.3125 168.258L83.168 168.432L83.1445 168.675L83.29 169.728L83.5137 170.324L83.5947 170.785L83.6719 170.997L83.8105 171.085L83.8438 171.127L84.1074 171.35L84.165 171.431L84.1982 171.492L84.6045 172.504L84.8311 172.896L85.1318 173.141L85.4033 173.176L85.7119 173.183L85.9648 173.265L86.0703 173.531L86.0713 173.551L86.0801 173.827L86.1016 173.977L86.1484 174.094L86.2588 174.19L86.4346 174.193L86.5547 174.254L86.6689 174.356L86.4678 174.46L86.3584 174.503L86.2754 174.563L86.2402 174.64L86.2793 174.78L86.3672 174.882L86.4697 174.938L86.6387 175.281L86.7891 175.42L86.9639 175.479L87.1562 175.456L87.3008 175.594L87.4023 175.672L87.5117 175.713L87.8242 175.727L87.9688 175.702L88.2695 175.612L88.5791 175.325L88.6758 175.176L88.6396 174.832L88.6357 174.616L88.9551 175.014L90.8662 177.629L91.1064 177.829L91.4385 177.949L91.6387 178.021L91.9189 177.892L92.124 178.078L92.4951 178.421L93.1377 178.906L93.751 179.207L94.1123 179.211L94.625 179.193L96.1562 179.142L96.6543 178.912L96.8125 178.641L97.2275 178.713L97.3994 178.856L97.6289 178.911L97.7168 178.967L97.7422 178.94L98.1416 178.967L98.0449 178.714L97.8555 178.443L97.0391 178.107L97.4014 177.985L97.7627 178.051L98.084 178.309L98.5615 178.601L98.9863 178.735L99.2031 178.788L99.3896 178.811L99.6289 178.865L99.8379 178.937L99.9287 179.01L100.271 179.155L100.699 179.393L100.809 179.512L102.075 181.678L102.761 182.729L103.358 183.647L103.813 184.099L105.059 184.88L106.44 186.205L107.095 186.677L107.099 186.68L107.02 187.338L107.076 188.311L106.937 188.708L106.606 189.037L105.688 189.744L105.382 190.116L105.196 190.633L105.19 191.165L105.111 191.642L104.707 191.993L104.569 192.083L104.507 192.188L104.465 192.3L104.389 192.409L104.026 192.632L103.961 192.707L103.861 192.972L103.716 193.129L103.513 193.151L103.249 193.009L103.141 192.875L103.062 192.724L102.966 192.6L102.802 192.549L102.652 192.593L102.438 192.789L102.427 192.801L102.304 192.863L102.046 192.809L101.853 192.597L101.61 192.026L101.616 191.915L101.655 191.791L101.651 191.688L101.533 191.641L101.388 191.616L101.292 191.558L101.225 191.458L101.167 191.317L100.971 191.056L100.705 190.994L100.417 191.06L99.9893 191.226L98.6543 191.744L98.2188 192.026L97.7402 192.255L97.2529 192.343L96.8721 192.542L96.7188 193.107L96.6807 193.384L96.5742 193.636L96.416 193.856L96.2246 194.039L95.6426 194.39L95.2979 194.5L95.0898 194.403L94.9473 194.092L94.7588 193.779L94.5234 193.508L94.2441 193.321L94.1211 193.296L93.8857 193.308L93.7637 193.259L93.6787 193.16L93.5332 192.867L93.4395 192.72L93.374 192.618L93.3506 192.476L93.3809 192.33L93.4619 192.19L93.9707 191.156L94.1758 191.024L94.4375 190.973L94.6631 190.889L94.7588 190.66L94.7793 190.426L94.8662 190.019L94.8857 189.31L94.9512 188.822L94.8623 188.575L94.6318 188.401L94.4326 188.214L94.4443 187.927L94.6113 187.718L94.7744 187.644L94.8877 187.537L94.9111 187.234L94.877 186.98L94.7949 186.819L94.6377 186.765L94.0684 186.888L93.8623 186.82L93.4629 186.493L93.2256 186.543L92.8994 186.892L92.666 186.952L92.1494 186.823L91.9834 186.801L91.8311 186.851L91.7627 186.935L91.709 186.941L91.6045 186.757L91.5742 186.652L91.5664 186.292L91.5898 186.181L91.5938 186.169L91.6328 186.063L91.6592 185.949L91.6357 185.846L91.4873 185.593L91.4326 185.457L91.4043 185.313L91.3691 184.721L91.2539 184.482L90.9678 184.315L90.8262 184.295L90.6992 184.297L90.584 184.28L90.4795 184.202L90.4463 184.099L90.4492 183.82L90.4307 183.743L90.2178 183.745L89.418 184.317L89.1982 184.348L88.9746 184.293L88.5498 184.104L87.793 183.884L87.5664 183.779L87.1699 183.493L86.9854 183.448L86.6641 183.485L86.4551 183.468L86.1787 183.383L86.0586 183.325L85.7002 183.152L85.457 182.938L85.3164 182.702L84.8555 181.302L84.7705 181.211L84.6387 181.164L84.4951 181.15L84.3818 181.16L84.1943 181.277V181.302L84.0068 181.299L83.8994 181.239L83.8428 181.171L83.8115 181.133L83.6982 181.064L83.5215 181.121L83.4414 181.225L83.4062 181.366L83.3906 181.648L83.3076 182.154L83.3213 182.367L83.4209 182.656L83.4453 182.833L83.3711 182.941L83.2617 183.035L83.1787 183.165L83.168 183.276L83.208 183.493L83.2129 183.602L83.1621 183.912L83.0527 184.186L82.9502 184.378L82.8594 184.118L82.7129 183.913L82.4883 183.847L82.6406 183.445L82.6553 183.244L82.5312 183.158L82.3701 183.199L82.2754 183.303L82.1562 183.576L81.7422 183.226L81.3867 182.816L81.3447 182.709L81.3105 182.563L81.2617 182.438L81.1738 182.384L81.0166 182.466L80.9258 182.489L80.8857 182.431L80.9131 182.34L81.0254 182.188L81.0479 182.128L81.0176 182.002L80.9111 181.793L80.8867 181.655L80.832 181.612L80.7139 181.62L80.5938 181.604L80.541 181.485L80.4834 181.255L80.3467 181.098L80.0234 180.851L79.7266 180.382L79.5312 180.21L79.3076 180.289L79.1973 180.295L79.1074 180.132L79.0078 179.812L78.9199 179.696L78.8545 179.645L77.7812 179.239L77.4717 178.95L77.4746 178.449L77.5293 178.225L77.5957 178.197L77.7744 178.193L77.8203 178.141L77.8086 178.022L77.7373 177.906L77.6016 177.853L77.4111 177.749L77.4268 177.511L77.4766 177.252L77.3896 177.085L77.5918 176.672L77.7188 176.478L77.8564 176.396L77.8955 176.314L78.2441 175.846L78.1514 175.707L77.9385 175.773L77.708 175.905L77.5596 175.97L77.3691 175.88L77.2988 175.729L77.3047 175.288L76.8721 175.535L76.668 175.709L76.5811 175.713L76.541 175.535H76.4502L76.208 175.466L75.8838 174.954L75.6621 174.371L75.7295 174.095L75.9941 173.948L76.2236 173.59L76.3867 173.14L76.4502 172.722H76.374L76.0225 173.396L75.7803 173.65L75.4717 173.532L75.4199 173.337L75.4805 172.799L75.4326 172.629L75.2666 172.612L75.1387 172.789L75.0537 173.036L75.0176 173.233L75.0684 173.675L75.0205 173.852L74.8027 173.923L74.6719 173.887L74.4854 173.802L74.3193 173.7L74.248 173.616L74.1807 173.58L73.8291 173.521L73.6533 173.411L73.501 173.218L73.1377 172.628L73.2529 172.423L73.2715 172.13L73.2295 171.562L73.2021 171.477L73.0791 171.274L73.0537 171.131L72.9961 171.113L72.7256 171.116L72.6279 171.085L72.793 170.82L72.7744 170.546L72.6836 170.231L72.5928 169.666L72.5088 169.652L72.3984 169.706L72.29 169.72L72.1816 169.664L72.0596 169.577L72.0225 169.498L72.1631 169.464L72.2139 169.384L72.1338 169.207L71.9844 169.031L71.8203 168.952L71.6211 168.925L71.5195 168.851L71.3496 168.61L71.1025 168.428L70.8604 168.291L70.668 168.12L70.5801 167.834H70.5029L70.4736 168.262L70.3516 168.605L70.0957 168.776L69.6553 168.688L69.3721 168.39L69.3037 167.563L69.1387 167.236L69.6543 166.832L69.7324 166.682L69.7559 166.447L69.832 166.075L69.8232 165.863L69.584 166.105L69.4648 166.151L69.3076 166.127L69.2441 166.055L69.0537 165.735L68.9629 165.642L68.7627 165.583L68.5596 165.472L68.4688 165.219L68.4834 165.093L68.5049 165.016L68.5107 164.945L68.4688 164.839L68.3818 164.73L68.1816 164.619L68.084 164.535L68.0127 164.405L67.9932 164.316L67.9414 164.281L67.7842 164.318L67.7051 164.39L67.6143 164.612L67.5723 164.66L67.3809 164.714L67.1963 164.818L67.0186 164.888L66.8428 164.839L66.7822 164.744L66.6973 164.466L66.6357 164.36L66.4814 164.268L66.4111 164.317L66.3779 164.42L66.3359 164.489L66.1738 164.63L66.1084 164.627L66.0811 164.446L66.0479 164.334L65.8877 164.171L65.8242 164.069L65.7959 163.827L65.8242 163.214L65.7812 163.047L65.8242 162.646V162.43L65.7842 162.233L65.5723 161.745L65.3945 162.096H65.3174L65.2754 161.187L65.1904 161.062L64.9541 161.128L64.5938 161.357L64.4619 161.318H64.3789V161.404H64.2939L64.2695 161.258L64.3213 160.591L64.3877 160.486L64.5908 160.335L64.6836 160.171L64.5176 160.092L64.252 160.039L64.0391 159.951L63.9824 160.23L63.8115 160.305L63.5928 160.318L63.4004 160.417L63.2734 160.555L63.0781 160.714L62.8848 160.778L62.7607 160.627H62.6758L62.6553 160.776L62.5898 160.856L62.5049 160.846L62.4219 160.721H62.3369V160.884L62.0801 160.854L61.8643 160.956L61.79 161.089L62.1738 161.244L62.2197 161.45L62.2158 161.691L62.292 161.879L62.2949 162.219L62.0869 162.732L61.8242 163.066L61.6582 162.865H61.583L61.5732 162.981L61.5391 163.06L61.4062 163.215L61.207 163.036L60.9795 162.608L60.6602 162.483L60.6221 162.392L60.5713 162.301L60.4287 162.261L60.292 162.251L60.1904 162.223L60.1104 162.172L60.043 162.098L59.9951 161.912V161.376L59.9199 161.195L59.8066 161.009L59.5537 159.836L59.0254 158.234L59.0068 157.963L59.0693 157.739L59.1523 157.644L59.1953 157.756L59.2266 157.996L59.3193 158.158L59.6191 158.482L59.6904 158.23L59.582 158.077L59.4062 157.956L59.2803 157.798L59.2744 157.717L59.3076 157.654L59.3457 157.601L59.3652 157.55L59.3574 157.345L59.3652 157.285L59.5039 156.897L59.5342 156.771L59.5107 156.496L59.3154 156.003L59.2803 155.829L59.3311 155.716L59.4199 155.646L59.5234 155.584L59.6201 155.488L59.6621 155.407L59.6875 155.325L59.7334 154.547L59.7959 154.27L60.0693 153.839L60.1836 153.345L60.4248 153.006L60.582 152.706L60.6836 152.646L60.7295 152.677L60.9141 152.725L61.0684 152.723L61.0254 152.604L60.9951 152.446L61.1162 152.271L61.4072 151.953L61.0352 152.107L60.8008 152.167L60.6797 152.068L60.6445 151.742L60.7959 151.606L61.0928 151.594L61.292 151.494L61.1523 151.097L60.7891 150.616L60.626 150.334L60.5596 150.022L60.5508 149.769L60.6084 149.841L60.7666 149.89L60.8672 149.852L60.9658 149.763L61.1523 149.555L60.9229 149.436L60.918 149.241L61.0322 149.03L61.0684 148.861L61.2178 148.654L61.3076 148.423L61.4795 147.642L61.5781 147.415L61.8311 146.967L62.0518 145.858L62.2256 145.51L62.5928 145.767L63.0029 145.444L63.1426 145.289L63.1104 145.166L63.0146 145.145L62.7773 145.177L62.6777 145.166L62.627 145.109L62.5811 144.942L62.5498 144.908L62.3018 144.808L62.4043 144.598L62.6348 144.424L62.7627 144.43L62.79 144.381L62.9043 144.232L62.9316 144.176L62.8984 144.084L62.6777 143.786L62.8809 143.775L62.9199 143.671L62.8379 143.536L62.6777 143.435L62.7627 143.356L62.9502 143.479L63.1465 143.558L63.3018 143.525L63.3643 143.31L63.417 143.298L63.5166 143.191L63.5723 143.07L63.4922 143.013L63.2373 143.01L63.126 142.983L63.0176 142.92L62.9609 143.006L62.9463 143.043L62.9326 143.099H62.8555L62.8701 142.996L62.8662 142.716L62.8555 142.669L62.96 142.563L63.0566 142.538L63.1562 142.534L63.2715 142.497L63.4443 142.374L63.5781 142.224L63.6865 142.039L63.7871 141.811L63.6865 141.901L63.4814 142.16L63.3643 142.232L63.2539 142.211L63.1865 142.122L63.1318 142.027L62.9141 141.886L63.0137 141.664L63.2139 141.432L63.3643 141.296L63.4209 141.385L63.5 141.431L63.5928 141.429L63.7012 141.374L63.6309 141.291L63.8164 141.155L63.8711 141.023L63.8291 140.975L63.7344 140.949L63.6455 140.897L63.6689 140.83L63.7969 140.711L63.8975 140.556L63.9951 140.486L64.2715 140.491L64.3799 140.429L64.4082 140.3L64.2891 140.247L64.1533 140.263L64.126 140.336L63.9922 140.163L63.9941 140.08L64.041 139.915L64.5928 138.962L64.7705 138.762L65.1094 137.795L65.3984 137.248L65.4922 136.966L65.5527 136.668L65.5742 136.41L65.6201 136.163L65.8125 135.693L65.8262 135.422L66.0625 134.658L66.1885 134.017L66.3604 133.536L66.3711 133.282L66.1973 132.49L66.1162 132.354L65.8779 132.148L65.833 131.987L65.9434 131.445L66.0664 131.16L66.6152 130.43L66.8525 130.217L66.9707 130.181L67.2354 130.164L67.3262 130.137L67.415 130.026L67.4629 129.905L67.5176 129.767L67.6221 129.649L67.7881 129.575L67.9033 129.602L68.0098 129.654L68.1426 129.659L68.585 129.465L68.6445 129.451L68.7363 129.348L68.7891 129.248L68.835 128.994L68.834 128.809L68.7354 128.553L68.708 128.398L68.7158 128.268L68.7451 128.13L68.7959 127.999L68.8662 127.89L68.9805 127.768L69.0303 127.753L69.0928 127.785L69.251 127.809L69.3916 127.852L69.5225 127.921L69.6445 127.924L69.751 127.771L69.8613 127.39L69.915 127.277L70.1182 127.069L70.6133 126.812L70.7109 126.735L70.8438 126.631L70.9248 126.51L71.042 126.248L71.1338 126.129L71.2559 126.06L71.5205 125.971L71.6045 125.866L71.9805 124.737L72.1406 124.455L72.541 123.971L72.6914 123.689L72.8799 123.182L73.0117 122.986L73.4824 122.475L73.5596 122.265L73.5791 122.043L73.6484 121.731L73.7646 121.529L74.123 121.167L74.2754 120.956L74.3896 120.706L74.4355 120.494L74.4131 119.981L74.4297 119.687L74.5439 119.478L74.7461 119.349L75.0322 119.292L75.5479 119.261L75.6963 119.14L76.4941 118.062L76.5986 117.762L76.7812 116.922L76.7559 116.8L76.5449 116.738L76.3066 116.586L76.084 116.391L75.9297 116.198L75.8389 115.918L75.8799 115.657L76.0723 115.147L76.0859 114.889L75.999 114.674L75.8291 114.52L75.5938 114.442L75.3965 114.261L75.4375 113.909L75.6348 113.312L75.6553 113.167L75.708 113.037L75.7363 112.918L75.6846 112.807L75.5752 112.758L75.4482 112.762L74.75 112.992L74.5752 112.949L74.5322 112.724L74.5986 112.601L74.7188 112.503L74.8203 112.389L74.8418 112.216L74.7969 112.088L74.6641 111.838L74.6162 111.705L74.6064 111.57L74.6357 111.339L74.6025 111.202L74.5176 111.062L74.3262 110.832L74.2588 110.677L74.2178 110.435L74.1826 109.729L74.1006 109.452L73.8184 108.942L73.7656 108.682L73.7969 108.554L73.9297 108.281L73.9785 108.146L74.0146 107.865L74.0166 107.596L73.9854 107.399L73.9668 107.285L73.8486 107.11L73.2373 106.768L73.0996 106.657L72.9775 106.53L72.8984 106.397L72.8037 106.3L72.5127 106.218L72.3965 106.146L72.3535 106.046L72.3252 105.788L72.2705 105.674L72.1406 105.59L71.8574 105.543L71.7461 105.487L71.6172 105.27L71.6064 105.041L71.6211 104.799L71.5752 104.537L71.4805 104.39L71.2344 104.152L71.1348 104.015L71.0928 103.889L71.0508 103.498L70.8877 103.112L70.8604 102.997L70.873 102.831L70.9199 102.712L70.9834 102.602L71.0361 102.457L71.0059 102.209L70.835 101.964L70.6035 101.757L70.3906 101.625L70.1162 101.41L70.0557 101.155L70.124 100.871L70.2314 100.569L70.2666 100.249L70.2275 99.9658L70.2266 99.7178L70.375 99.5049L70.6123 99.415L71.1035 99.3594L71.2734 99.2061L71.2832 99.1973L71.3193 98.9775L71.2676 98.7168L71.1113 98.2402L71.1035 98.0684L71.1553 97.9482L71.2266 97.8418L71.2793 97.709V97.5859L71.2383 97.3418L71.3027 96.7061L71.291 96.4609L70.8457 94.4883L70.8154 93.416L70.8564 93.127L70.8525 92.793L70.7803 92.6807L70.7119 92.5732L70.3096 92.1826L70.2148 91.9775L70.0732 91.3672L70.0693 91.1475L70.0996 90.9941L70.1035 90.8965L70.0762 90.8125L70.0117 90.7051L69.9551 90.667L69.7822 90.6182L69.7168 90.584L69.668 90.5068L69.6055 90.3154L69.5498 90.2402L69.1602 89.9473L69.0479 89.7979L68.9219 89.5166L68.7705 89.2744L68.375 88.7969L68.3086 88.5615L68.2803 88.2715L68.1553 88.0635L67.9375 87.9238L67.6396 87.8359L67.375 87.7178L65.9023 86.5977L65.6211 86.2988L65.3223 85.7051L65.2031 85.6865L65.0566 85.7373L64.8682 85.7305L64.7842 85.668L64.625 85.4561L64.5439 85.376L64.4531 85.334L64.2617 85.29L64.1748 85.2549L64.0127 85.1465L63.9102 85.0439L63.3457 84.3271L62.4824 82.5508L62.3213 82.4629L62.168 82.4033L62.0771 82.2246L62.0088 81.9141L61.9014 81.6377L61.7383 81.3857L60.2402 79.9297L59.5684 78.8555L59.4697 78.6055L59.5117 78.4189L59.5156 78.3564L59.4766 78.2744L59.3428 78.165L59.3057 78.0967L59.2842 77.8271L59.2998 77.3662L59.2158 77.085L58.9697 76.6436L58.9209 76.5088L58.9229 76.4434L58.9238 76.3418L58.9785 76.2197L59.0459 76.1094L59.0859 75.9775L59.0195 75.6973L59.0166 75.6953L58.6357 75.2949L58.541 74.9922L58.5967 74.7422L58.8545 74.2939L58.916 74.0576L58.8418 73.8779L58.7568 73.6768V73.6748L58.748 73.5254L59.127 73.543L59.2236 73.5479L59.4395 73.4463L59.623 73.2646L60.0615 72.6348L60.2119 72.6006L60.4941 72.6475L60.7197 72.7344L61.1445 72.9951L61.3301 73.0674L61.417 73.042L61.4482 72.9561V72.7617L61.415 72.6875L61.3408 72.6289L61.2646 72.585L61.2344 72.5508L61.251 72.4844L61.2803 72.4199L61.3115 72.373L61.3252 72.3594L61.4346 72.2959L61.502 72.2256L61.5176 72.1113L61.4668 71.8936L61.4756 71.7891L61.5566 71.7334L62.0029 71.6367L62.2012 71.5596L62.4385 71.4326L62.6924 71.5449L62.9463 71.6904L63.1299 71.8926L63.1709 72.1719L63.498 71.7949L63.6104 71.1934L63.5879 70.5459L63.2959 68.6299L63.3223 67.8955L63.3008 67.6836L63.2539 67.209L63.2881 66.9072L63.6768 65.6123L63.7051 65.3779L63.6143 64.8379L63.6055 64.5283L63.7549 64.0264L63.7939 63.7959L63.709 63.5391L63.375 63.0586L63.3369 62.8877L63.4473 62.7842L63.5938 62.8037L63.7461 62.8701L63.8721 62.9092L64.0332 62.9082L64.1387 62.8945L64.2324 62.8418L64.3691 62.7256L64.543 62.4727L64.6201 62.2148L64.7236 62.001L64.9824 61.873L65.2002 61.8633L65.9609 61.9629L66.1094 62.0312L66.1797 62.1221L66.2666 62.1787L66.458 62.1533L66.5664 62.0742L66.8594 61.751L66.917 61.6357L66.9082 61.3369L66.9316 61.0615L67.0117 60.8076L67.167 60.5723L67.5156 60.1621L67.5771 59.958L67.6367 59.373L67.7598 58.8105L67.749 58.5762L67.5352 58.2588L67.248 58.0713L67.0156 57.8428L66.9678 57.4033L66.709 57.6201L66.6064 57.8271L66.5029 58.3613L66.3359 58.667L65.5869 59.2646L65.2158 59.8242L65.0176 59.9717L64.7803 59.8018L64.7021 59.6084L64.5205 58.6787L64.3604 58.3037L64.3447 58.1631L64.4697 57.8926L64.4893 57.7568L64.3877 57.5225L63.6279 56.5088L63.5518 56.375L63.5488 56.2354L63.5898 56.0986L63.5957 55.9795L63.5713 55.8633L63.5186 55.7314L63.3389 55.4932L62.9062 55.1943L62.7354 54.9473L62.6475 54.5938L62.585 54.4482L62.2168 54.1602L62.1924 53.9307L62.29 53.6826L62.4385 53.4697L62.6211 53.416L62.8223 53.2881L62.9727 53.1279L63.0098 52.9844L62.918 52.8799L62.7959 52.8301L62.6846 52.7637L62.6309 52.6074L62.6621 52.4238L62.7617 52.3613L62.9023 52.3994L63.0586 52.5137L62.9521 52.1445L62.8721 51.9678L62.7549 51.8867L62.5615 51.7959L62.5146 51.6064L62.5107 51.3896L62.4385 51.2188L62.3037 51.0479L62.0928 50.624L61.9619 50.4268L61.7354 50.2002L61.5117 50.0566L61.2617 49.9834L60.6523 49.9697L60.4365 49.9023L60.2676 49.7383L60.1006 49.4443L60.1494 49.3994L60.2129 49.2832L60.2012 49.1826L59.8789 49.1807L59.8516 49.0684L59.9092 48.9209L60.0107 48.8066L59.7285 48.6113L59.291 47.9746L59.0518 47.7803L58.8584 47.6699L57.7969 46.6533L57.6982 46.5283L57.6709 46.3594L57.7158 46.0859L57.7236 45.9258L57.6494 45.7422L57.502 45.6484L57.3203 45.5859L57.1523 45.499L56.9883 45.3242L56.9023 45.1455L56.7744 44.7734L56.5 44.3398L56.4453 44.1465L56.334 44.0195L56.2041 43.9385L55.9102 43.7998L55.7266 43.6777L55.4062 43.3779L53.6807 41.7617L53.5615 41.6025L53.4854 41.4209L53.4678 41.2559L53.4658 41.1064L53.4414 40.9736L53.335 40.8389L53.0352 40.584L52.9639 40.4346L52.9062 40.2588L52.7822 40.1055L52.627 39.9756L52.5293 39.7959L52.8135 39.7568L52.6455 39.1406L52.7246 38.9463L53.0742 38.3262L53.415 38.0957L53.4561 38.0596L53.4961 37.9902L53.4678 37.8369L53.4111 37.6836L53.3721 37.6143L53.3193 37.5479L53.1387 37.1074L53.0996 36.9492L53.0742 36.8945L52.9053 36.8135L52.8525 36.7803L52.7979 36.7949L52.7539 36.7852L52.7363 36.6729L52.748 36.6074L52.8018 36.4834L52.8145 36.4053L52.7861 36.2627L52.6709 36.0244L52.6436 35.8711V35.7598L52.6309 35.6826L52.582 35.5977L51.9443 34.707L51.8076 34.4355L51.8428 34.3135L52.0283 34.2275L52.1221 34.0264L52.1279 33.7881L52.0518 33.5918L51.8916 33.5L51.2598 33.2432L51.1191 33.2764L51.0957 33.3057L50.8652 33.9326L50.8105 34.0322L50.6953 34.127L50.4443 33.9805L50.1758 33.7773L49.9287 33.5254L49.7559 33.2354L49.6836 32.9131L49.6797 32.6152L49.6377 32.3252L49.3213 31.832L49.0361 31.2314L48.9844 31.0391L48.8438 30.791L48.5771 30.541L48.5 30.3945L48.7666 30.4277L48.8564 30.4385L48.9658 30.5107L49.2197 30.9141L49.2539 31.0234L49.3096 31.1143L49.4434 31.1992L49.5762 31.2178L49.8828 31.1611L50.4629 31.1768L50.9453 30.9443L51.8076 30.3682L52.0488 30.2881L52.7061 30.3057L53.2969 30.1406L53.3574 30.1572L53.3936 30.1338L53.4697 29.9844L53.5684 29.457L53.4795 28.9258L53.3389 28.4072L53.2773 27.917L53.2705 27.6279L53.2324 27.3945L53.0801 26.9092L53.0684 26.8008L53.1172 26.459L53.0645 26.2939L52.9336 26.1553L52.6338 25.9287L52.3535 25.6494L52.3037 25.4932L52.4307 25.3662L52.6904 25.1787L52.8682 24.9873L52.9561 24.7832L53.0371 24.2803L53.1719 24.0342L53.9424 23.4385L54.1182 23.2363L54.2012 23.0498L54.2559 22.0225L54.2236 21.7871L54.1328 21.5391L54.0225 21.417L53.6914 21.1465L53.6221 21.0273L53.6699 20.8867L53.7861 20.8672L53.9268 20.8779L54.0459 20.8301L54.1436 20.5713L54.0303 20.3447L53.8574 20.0996L53.7773 19.7842L53.7588 19.6533L53.666 19.3994L53.6582 19.3057L54.0713 18.7373L54.4834 18.3701L54.5898 18.2295L54.6719 18.0381L54.6641 17.9639L54.6162 17.8994L54.5752 17.7334L54.5498 17.4707L54.5615 17.2314L54.6709 17.0693L54.9248 17.0322L55.1318 17.002L55.9043 16.6123L56.0049 16.5205L56.1855 16.3027L56.2949 16.2061L56.4307 16.1631L56.5508 16.167L56.6523 16.1299L56.7178 15.9639L56.7217 15.7305L56.6191 15.2549L56.6064 15.0137L56.7715 14.1523L56.8535 13.9736L57.1152 13.9121L57.3008 14.0928L57.4531 14.3115L57.6152 14.3652L57.9307 14.3135L58.1895 14.459L58.6836 14.9131L59.1045 15.0459L59.1953 15.0947L59.2529 15.2236L59.2383 15.4932L59.2686 15.6309L59.4971 15.793L59.8096 15.7246L60.3633 15.46L60.8633 15.4512L61.4443 15.5078L62.0049 15.4893L62.4385 15.2588L62.4795 15.2539L62.6152 15.2402L62.7246 15.3193L62.8184 15.4404L62.9463 15.5469L63.1592 15.6465L63.208 15.6299L63.2256 15.54L63.3545 15.4248L63.6016 15.3281L63.8799 15.2744L63.9746 15.209L64.1865 14.9365L64.29 14.835L64.5088 14.7363L65.6104 14.5742L65.8477 14.4922L66.5752 13.9258L66.9482 14.0977L67.1211 14.2217L67.2773 14.3643L67.5166 14.7295L67.71 14.6885L68.1543 14.3613L68.6348 14.1689L68.8066 14.0205L68.9707 13.7344L69.0684 13.4072L69.0537 13.1572L68.9922 12.9102L68.9512 12.5928L68.9766 12.459L69.0361 12.3652L69.0947 12.2959L69.127 12.2334L69.1182 12.1113L69.0459 11.8711L69.0322 11.7412L69.168 10.8359L69.4121 10.3857L69.8711 10.041L70.418 9.82324L70.9258 9.74707L71.165 9.76953L71.6768 9.91992L71.8936 10.0215L72.376 10.4248L72.6289 10.5527L72.9463 10.5029L74.4375 10.0361L74.8486 9.6875L75.0098 9.5127L75.1562 9.43848L75.2734 9.36133L75.293 9.34766L75.4199 9.12109L75.4863 8.78809L75.4004 8.57715L74.9951 8.1377L74.8545 7.36816L74.748 7.12402L74.292 6.6416L74.1807 6.41895L74.4199 6.33203L74.5957 6.39844L75.2012 6.82031L76.1543 7.13672L76.2734 7.14258L76.5 7.11133L76.6299 7.12109L76.7412 7.16992L76.9297 7.30078L77.0508 7.32715L77.29 7.2832L77.751 7.08691L78.0078 7.04004L78.5107 7.04199L78.7285 6.9668L78.9375 6.76953L79.0488 6.55469L79.2148 6.07715L79.3555 5.87305L79.5791 5.72461L79.8545 5.63086L80.5322 5.53027L80.5898 5.5L80.6514 5.5127ZM77.4053 181.501L77.4023 182.111L77.5977 182.567L77.7021 182.931L77.6885 183.104L77.6436 183.243L77.5557 183.308L77.4434 183.323L77.3467 183.352L77.3047 183.452L77.3018 183.567L77.2803 183.641L77.2285 183.696L77.1348 183.754L76.9873 183.538L76.8301 183.01L76.4092 182.618L76.4434 182.449L76.5791 182.302L76.7021 182.128L76.7285 182.002L76.6982 181.774L76.7021 181.695L76.7686 181.617L76.8584 181.577L76.9326 181.521L76.9648 181.4L76.9834 181.172L77.0352 180.942L77.1133 180.866L77.4053 181.501ZM72.0352 182.725L72.1904 182.838L72.1572 182.898L72.0293 182.947L71.6572 183.198L71.3779 183.245L71.1201 183.172L70.9268 182.98L71.1504 183.032L71.2695 182.917L71.3877 182.77L71.6123 182.725H71.5205L71.9297 182.7L72.0352 182.725ZM73.9922 174.095L74.1611 174.217L74.4932 174.287L74.5928 174.437L74.4277 174.421L74.2744 174.437L74.1377 174.482L74.0342 174.557L73.8525 174.855L73.7168 174.998L73.6533 174.901L73.6484 174.27L73.7441 173.979L73.9922 174.095ZM69.7754 169.737L69.9014 169.813L69.9023 170.261L70.0283 170.72L70.2188 171.131L70.418 171.436L70.2012 171.585L69.918 171.422L69.6689 171.125L69.3486 170.402L69.3086 170.279L69.3213 169.849L69.2969 169.641L69.2168 169.465L69.248 169.438L69.2637 169.428L69.2783 169.414L69.3086 169.373H69.3936L69.7754 169.737ZM70.2578 169.059L70.502 169.208L70.542 169.371V169.61L70.499 169.84L70.418 169.977L70.3096 169.998L70.1992 169.968L70.1143 169.91L70.0791 169.853L70.0479 169.775L69.9766 169.726L69.8936 169.687L69.8242 169.644L69.5137 169.133L69.793 168.985L70.2578 169.059ZM60.0986 162.531L60.1367 162.55L60.2188 162.608L60.3086 162.57L60.415 162.602L60.5303 162.682L60.6455 162.79L60.7148 162.966L60.8125 163.557H60.8877L61.0186 163.437L61.1875 163.535L61.3789 163.729L61.582 163.891L61.6729 163.743L61.7939 163.681L61.9121 163.723L61.999 163.891L61.9912 164.101L61.9092 164.3L61.7441 164.582L61.7334 164.684L61.7607 164.91L61.7441 165.009L61.6904 165.062L61.6152 165.103L61.54 165.16L61.4902 165.266L61.4824 165.485L61.5322 165.727L61.624 165.952L61.7451 166.127L61.7852 166.068L61.8613 166.009L61.9062 165.956L62.0059 166.15L62.0078 166.342L61.9082 166.487L61.5098 166.617L61.4561 166.793L61.4902 167.237L61.0459 167.02L60.8174 167.014L60.7207 167.284L60.6758 167.601L60.5586 167.788L60.3857 167.828L60.1719 167.706L60.1074 167.529L60.043 166.726L59.9961 166.632L59.9375 166.541L59.8887 166.436L59.873 166.299L59.9258 166.257L60.0254 166.213L60.0908 166.128L60.043 165.956L59.9717 165.911L59.752 165.844L59.7041 165.82L59.7598 165.695L59.8711 165.596L59.9512 165.503L59.9189 165.397L59.8506 165.252L59.9004 165.124L59.9951 165.004L60.042 164.885L60.0303 164.746L59.9766 164.5L59.9551 164.057L59.9639 163.978L59.9951 163.884L60.0908 163.687L60.127 163.558L60.1514 163.296L60.1357 163.024L60.043 162.523L60.0986 162.531ZM63.1631 163.428L63.2051 163.482L63.2578 163.61L63.2559 163.602L63.834 163.931L64.0254 164.129L64.124 164.488L64.1426 165.848L64.0391 166.127L63.8496 166.112L63.7139 165.929L63.6338 165.682L63.5928 165.382L63.5342 165.197L63.5391 165.095L63.5986 165.007L63.6797 164.997L63.752 164.972L63.7842 164.838L63.7754 164.73L63.7422 164.615L63.6777 164.525L63.5723 164.488L63.4346 164.461L63.3887 164.391L63.3721 164.296L63.2119 164.032L63.1387 163.814L63.1035 163.583L63.1074 163.378L63.1631 163.428ZM64.3945 162.549L64.4395 162.602L64.4561 162.679L64.4619 162.779L64.2617 163.641L64.2549 163.797L63.8428 163.649L63.7432 163.595L63.625 163.436L63.6826 163.359L63.9551 163.292L63.9004 163.086L64.0186 162.901L64.1934 162.719L64.2939 162.522L64.3945 162.549ZM60.0156 152.278L60.1289 152.34L60.2617 152.429L60.4082 152.669L60.3594 152.924L60.1982 153.216L59.9072 153.937L59.7959 153.919L59.6904 153.677L59.6641 153.419L59.7227 153.151L59.7246 152.817L59.6797 152.434L59.7871 152.233L60.0156 152.278ZM60.0527 150.429L60.2188 150.574L60.3701 150.727L60.4883 150.926L60.5547 151.166L60.5586 151.438L60.2979 151.703L60.3887 151.781L60.2041 151.874L59.9521 151.944L59.7051 151.934L59.5342 151.78L59.5283 151.608L59.6318 150.596L59.6299 150.512L59.6621 150.462L59.7881 150.41L59.9414 150.388L60.0527 150.429ZM54.917 147.118L54.9941 147.303L55.0127 147.497L54.959 147.631L54.5645 147.321L54.5059 147.224L54.5361 147.132L54.6084 147.062L54.6982 147.019L54.7783 147.014L54.917 147.118ZM82.3125 145.051L82.4375 145.183L82.4961 145.354L82.3643 145.491L82.2607 145.847L82.2217 146.247L82.126 146.574L81.7676 146.745L81.7373 146.828L81.7275 146.927L81.6914 147.009L81.6094 147.053L81.5137 147.056L81.4141 147.046L80.8281 147.104L80.707 147.147L80.6348 146.905L80.584 146.439L80.4551 146.195L80.6396 145.971L80.6201 145.739L80.5156 145.51L80.4551 145.291L80.5791 145.144L80.8662 145.104L81.1797 145.127L81.9121 145.313L82.1436 145.273L82.2412 145.033L82.3125 145.051ZM55.25 146.528L55.3018 146.606L55.3105 146.708L55.2861 146.81L55.2441 146.889L55.1475 146.895L55.0254 146.846L54.9346 146.863L54.9355 147.058L54.6836 146.846L54.7285 146.604L54.959 146.457L55.25 146.528ZM77.6904 145.852L77.418 145.957L77.252 145.878L77.6318 145.589L77.6904 145.852ZM77.377 144.56L77.4014 144.579L77.4219 144.601L77.4521 144.611L77.4043 144.709L77.375 144.731L77.3594 144.68L77.3408 144.556L77.377 144.56ZM81.3438 142.384L81.4668 142.396L81.6943 142.378L81.8096 142.404L82.2051 142.655L82.3545 143.072L82.4883 144.043L82.3457 143.936L82.041 143.76L81.3604 143.476L81.2168 143.355L81.2881 143.208L81.2451 143.067L81.0049 142.795L81.0068 142.711L81.166 142.451L81.2168 142.326L81.3438 142.384ZM61.6582 142.747L61.7344 143.015L61.7207 143.186L61.4902 143.527L61.3262 143.255L61.3848 143.072L61.54 142.904L61.6582 142.669V142.747ZM113.193 117.688L113.246 117.828L113.276 117.97L113.266 118.12L113.192 118.285L113.509 118.259L113.712 118.581L113.739 119.039L113.533 119.416V119.502H113.709L113.603 119.669L113.57 119.792L113.617 120.114H113.533L113.449 120.045L113.353 119.841L113.286 119.762L113.169 119.706L112.771 119.589L112.868 119.451L112.925 119.39L112.946 119.321L112.94 119.164L112.903 119.045L112.781 118.761L112.771 118.638L113.016 117.723L113.082 117.628L113.193 117.688ZM109.496 112.657L109.83 112.745L110.05 112.735L110.445 113.022L110.6 113.178L110.736 113.349L110.884 113.678L110.989 113.85L111.151 113.964V114.041L111.236 114.128L111.367 114.363L111.555 114.583L111.691 114.795L111.667 115.001L111.497 115.077L111.292 114.949L110.897 114.552L110.857 114.7L110.882 114.846L110.859 114.957L110.686 115.001L110.524 114.982L110.05 114.827V114.907L110.086 114.95L110.143 115.08L110.066 115.018L109.994 114.971L109.908 114.937L109.795 114.907V114.827L109.842 114.655L109.843 113.869L109.725 113.741L109.373 112.917H109.543L109.492 112.828L109.439 112.758L109.373 112.7L109.288 112.649L109.496 112.657ZM94.5 53.5C90.705 53.5 87.625 56.58 87.625 60.375V63.125H86.25C84.7375 63.125 83.5 64.3625 83.5 65.875V79.625C83.5 81.1375 84.7375 82.375 86.25 82.375H102.75C104.263 82.375 105.5 81.1375 105.5 79.625V65.875C105.5 64.3625 104.263 63.125 102.75 63.125H101.375V60.375C101.375 56.58 98.295 53.5 94.5 53.5ZM102.75 79.625H86.25V65.875H102.75V79.625ZM94.5 70C92.9875 70 91.75 71.2375 91.75 72.75C91.75 74.2625 92.9875 75.5 94.5 75.5C96.0125 75.5 97.25 74.2625 97.25 72.75C97.25 71.2375 96.0125 70 94.5 70ZM94.5 56.1123C96.8513 56.1123 98.7627 58.0237 98.7627 60.375V63.125H90.2373V60.375C90.2373 58.0237 92.1487 56.1123 94.5 56.1123Z" fill="#262626"/>
</svg>
