<svg width="100" height="100" viewBox="0 0 100 100" fill="none" xmlns="http://www.w3.org/2000/svg">
<g clip-path="url(#clip0_2153_85)">
<path d="M99.7466 99.7482C99.7466 99.7482 101.98 65.3574 93.1852 56.5623C84.3918 47.7687 49.9989 49.9991 49.9989 49.9991L99.7466 99.7482Z" fill="#DCDDDE"/>
<path d="M99.7459 99.7461C99.7459 99.7461 65.3561 101.98 56.5612 93.1845C47.7679 84.3909 49.9982 49.997 49.9982 49.997L99.7459 99.7461Z" fill="#BBBBBB"/>
<path d="M0.253818 0.253604C0.253818 0.253604 34.643 -1.98071 43.4379 6.81445C52.2316 15.6083 49.9998 50.0011 49.9998 50.0011L0.253818 0.253604Z" fill="#DCDDDE"/>
<path d="M0.25555 0.254027C0.25555 0.254027 -1.97904 34.6438 6.81566 43.4388C15.6104 52.2337 49.9998 50.0011 49.9998 50.0011L0.25555 0.254027Z" fill="#BBBBBB"/>
<path d="M99.7477 0.25455C99.7477 0.25455 65.3559 -1.97723 56.5623 6.81666C47.7674 15.6118 50.0004 50.0033 50.0004 50.0033L99.7477 0.25455Z" fill="#E8EAEB"/>
<path d="M99.7451 0.250935C99.7451 0.250935 101.976 34.6428 93.1822 43.4368C84.3884 52.2308 49.9975 49.9999 49.9975 49.9999L99.7451 0.250935Z" fill="#C6CAC9"/>
<path d="M0.253015 99.7484C0.253015 99.7484 -1.97883 65.3569 6.81474 56.5631C15.6099 47.7677 50.0004 49.9996 50.0004 49.9996L0.253015 99.7484Z" fill="#E8EAEB"/>
<path d="M0.250214 99.747C0.250214 99.747 34.6407 101.979 43.4343 93.1851C52.2294 84.3897 49.9982 49.997 49.9982 49.997L0.250214 99.747Z" fill="#C6CAC9"/>
</g>
<defs>
<clipPath id="clip0_2153_85">
<rect width="100" height="100" fill="white"/>
</clipPath>
</defs>
</svg>
